o 
v 0 1.299999976158142 0.8199999928474426
v 0.2122316211462021 1.299999976158142 0.7920591831207275
v 0.4099999964237213 1.299999976158142 0.7101408243179321
v 0.5798275470733643 1.299999976158142 0.5798275470733643
v 0.7101408243179321 1.299999976158142 0.4099999964237213
v 0.7920591831207275 1.299999976158142 0.2122316211462021
v 0.8199999928474426 1.299999976158142 5.021051830901392e-17
v 0.7920591831207275 1.299999976158142 -0.2122316211462021
v 0.7101408243179321 1.299999976158142 -0.4099999964237213
v 0.5798275470733643 1.299999976158142 -0.5798275470733643
v 0.4099999964237213 1.299999976158142 -0.7101408243179321
v 0.2122316211462021 1.299999976158142 -0.7920591831207275
v 1.0042103661802784e-16 1.299999976158142 -0.8199999928474426
v -0.2122316211462021 1.299999976158142 -0.7920591831207275
v -0.4099999964237213 1.299999976158142 -0.7101408243179321
v -0.5798275470733643 1.299999976158142 -0.5798275470733643
v -0.7101408243179321 1.299999976158142 -0.4099999964237213
v -0.7920591831207275 1.299999976158142 -0.2122316211462021
v -0.8199999928474426 1.299999976158142 -1.5063156154448667e-16
v -0.7920591831207275 1.299999976158142 0.2122316211462021
v -0.7101408243179321 1.299999976158142 0.4099999964237213
v -0.5798275470733643 1.299999976158142 0.5798275470733643
v -0.4099999964237213 1.299999976158142 0.7101408243179321
v -0.2122316211462021 1.299999976158142 0.7920591831207275
v -2.0084207323605569e-16 1.299999976158142 0.8199999928474426
v 0 2.384185793236071e-8 0.6800000071525574
v 0.17599694430828094 2.384185793236071e-8 0.6568295359611511
v 0.3400000035762787 2.384185793236071e-8 0.5888972878456116
v 0.48083260655403137 2.384185793236071e-8 0.48083260655403137
v 0.5888972878456116 2.384185793236071e-8 0.3400000035762787
v 0.6568295359611511 2.384185793236071e-8 0.17599694430828094
v 0.6800000071525574 2.384185793236071e-8 4.163799232615122e-17
v 0.6568295359611511 2.384185793236071e-8 -0.17599694430828094
v 0.5888972878456116 2.384185793236071e-8 -0.3400000035762787
v 0.48083260655403137 2.384185793236071e-8 -0.48083260655403137
v 0.3400000035762787 2.384185793236071e-8 -0.5888972878456116
v 0.17599694430828094 2.384185793236071e-8 -0.6568295359611511
v 8.327598465230243e-17 2.384185793236071e-8 -0.6800000071525574
v -0.17599694430828094 2.384185793236071e-8 -0.6568295359611511
v -0.3400000035762787 2.384185793236071e-8 -0.5888972878456116
v -0.48083260655403137 2.384185793236071e-8 -0.48083260655403137
v -0.5888972878456116 2.384185793236071e-8 -0.3400000035762787
v -0.6568295359611511 2.384185793236071e-8 -0.17599694430828094
v -0.6800000071525574 2.384185793236071e-8 -1.249139736697312e-16
v -0.6568295359611511 2.384185793236071e-8 0.17599694430828094
v -0.5888972878456116 2.384185793236071e-8 0.3400000035762787
v -0.48083260655403137 2.384185793236071e-8 0.48083260655403137
v -0.3400000035762787 2.384185793236071e-8 0.5888972878456116
v -0.17599694430828094 2.384185793236071e-8 0.6568295359611511
v -1.6655196930460487e-16 2.384185793236071e-8 0.6800000071525574
vt 0 1
vt 0.0416666679084301 1
vt 0.0833333358168602 1
vt 0.125 1
vt 0.1666666716337204 1
vt 0.2083333283662796 1
vt 0.25 1
vt 0.2916666567325592 1
vt 0.3333333432674408 1
vt 0.375 1
vt 0.4166666567325592 1
vt 0.4583333432674408 1
vt 0.5 1
vt 0.5416666865348816 1
vt 0.5833333134651184 1
vt 0.625 1
vt 0.6666666865348816 1
vt 0.7083333134651184 1
vt 0.75 1
vt 0.7916666865348816 1
vt 0.8333333134651184 1
vt 0.875 1
vt 0.9166666865348816 1
vt 0.9583333134651184 1
vt 1 1
vt 0 0
vt 0.0416666679084301 0
vt 0.0833333358168602 0
vt 0.125 0
vt 0.1666666716337204 0
vt 0.2083333283662796 0
vt 0.25 0
vt 0.2916666567325592 0
vt 0.3333333432674408 0
vt 0.375 0
vt 0.4166666567325592 0
vt 0.4583333432674408 0
vt 0.5 0
vt 0.5416666865348816 0
vt 0.5833333134651184 0
vt 0.625 0
vt 0.6666666865348816 0
vt 0.7083333134651184 0
vt 0.75 0
vt 0.7916666865348816 0
vt 0.8333333134651184 0
vt 0.875 0
vt 0.9166666865348816 0
vt 0.9583333134651184 0
vt 1 0
vn 0 -0.10707320357249779 0.994251139841802
vn 0.2573311299411864 -0.10707320150275179 0.9603728541994215
vn 0.497125572742298 -0.10707320418018332 0.8610467431401335
vn 0.7030417233527055 -0.1070732013648397 0.7030417233527055
vn 0.8610467431401335 -0.10707320418018332 0.497125572742298
vn 0.9603728541994215 -0.10707320150275179 0.2573311299411864
vn 0.994251139841802 -0.10707320357249779 6.088032150980841e-17
vn 0.9603728541994215 -0.10707320150275179 -0.2573311299411864
vn 0.8610467431401335 -0.10707320418018332 -0.497125572742298
vn 0.7030417233527055 -0.1070732013648397 -0.7030417233527055
vn 0.497125572742298 -0.10707320418018332 -0.8610467431401335
vn 0.2573311299411864 -0.10707320150275179 -0.9603728541994215
vn 1.2176064301961682e-16 -0.10707320357249779 -0.994251139841802
vn -0.2573311299411864 -0.10707320150275179 -0.9603728541994215
vn -0.497125572742298 -0.10707320418018332 -0.8610467431401335
vn -0.7030417233527055 -0.1070732013648397 -0.7030417233527055
vn -0.8610467431401335 -0.10707320418018332 -0.497125572742298
vn -0.9603728541994215 -0.10707320150275179 -0.2573311299411864
vn -0.994251139841802 -0.10707320357249779 -1.8264097776431514e-16
vn -0.9603728541994215 -0.10707320150275179 0.2573311299411864
vn -0.8610467431401335 -0.10707320418018332 0.497125572742298
vn -0.7030417233527055 -0.1070732013648397 0.7030417233527055
vn -0.497125572742298 -0.10707320418018332 0.8610467431401335
vn -0.2573311299411864 -0.10707320150275179 0.9603728541994215
vn -2.4352128603923365e-16 -0.10707320357249779 0.994251139841802
vn 0 -0.10707320357249779 0.994251139841802
vn 0.2573311299411864 -0.10707320150275179 0.9603728541994215
vn 0.497125572742298 -0.10707320418018332 0.8610467431401335
vn 0.7030417233527055 -0.1070732013648397 0.7030417233527055
vn 0.8610467431401335 -0.10707320418018332 0.497125572742298
vn 0.9603728541994215 -0.10707320150275179 0.2573311299411864
vn 0.994251139841802 -0.10707320357249779 6.088032150980841e-17
vn 0.9603728541994215 -0.10707320150275179 -0.2573311299411864
vn 0.8610467431401335 -0.10707320418018332 -0.497125572742298
vn 0.7030417233527055 -0.1070732013648397 -0.7030417233527055
vn 0.497125572742298 -0.10707320418018332 -0.8610467431401335
vn 0.2573311299411864 -0.10707320150275179 -0.9603728541994215
vn 1.2176064301961682e-16 -0.10707320357249779 -0.994251139841802
vn -0.2573311299411864 -0.10707320150275179 -0.9603728541994215
vn -0.497125572742298 -0.10707320418018332 -0.8610467431401335
vn -0.7030417233527055 -0.1070732013648397 -0.7030417233527055
vn -0.8610467431401335 -0.10707320418018332 -0.497125572742298
vn -0.9603728541994215 -0.10707320150275179 -0.2573311299411864
vn -0.994251139841802 -0.10707320357249779 -1.8264097776431514e-16
vn -0.9603728541994215 -0.10707320150275179 0.2573311299411864
vn -0.8610467431401335 -0.10707320418018332 0.497125572742298
vn -0.7030417233527055 -0.1070732013648397 0.7030417233527055
vn -0.497125572742298 -0.10707320418018332 0.8610467431401335
vn -0.2573311299411864 -0.10707320150275179 0.9603728541994215
vn -2.4352128603923365e-16 -0.10707320357249779 0.994251139841802
f 1/1/1 26/26/26 2/2/2
f 26/26/26 27/27/27 2/2/2
f 2/2/2 27/27/27 3/3/3
f 27/27/27 28/28/28 3/3/3
f 3/3/3 28/28/28 4/4/4
f 28/28/28 29/29/29 4/4/4
f 4/4/4 29/29/29 5/5/5
f 29/29/29 30/30/30 5/5/5
f 5/5/5 30/30/30 6/6/6
f 30/30/30 31/31/31 6/6/6
f 6/6/6 31/31/31 7/7/7
f 31/31/31 32/32/32 7/7/7
f 7/7/7 32/32/32 8/8/8
f 32/32/32 33/33/33 8/8/8
f 8/8/8 33/33/33 9/9/9
f 33/33/33 34/34/34 9/9/9
f 9/9/9 34/34/34 10/10/10
f 34/34/34 35/35/35 10/10/10
f 10/10/10 35/35/35 11/11/11
f 35/35/35 36/36/36 11/11/11
f 11/11/11 36/36/36 12/12/12
f 36/36/36 37/37/37 12/12/12
f 12/12/12 37/37/37 13/13/13
f 37/37/37 38/38/38 13/13/13
f 13/13/13 38/38/38 14/14/14
f 38/38/38 39/39/39 14/14/14
f 14/14/14 39/39/39 15/15/15
f 39/39/39 40/40/40 15/15/15
f 15/15/15 40/40/40 16/16/16
f 40/40/40 41/41/41 16/16/16
f 16/16/16 41/41/41 17/17/17
f 41/41/41 42/42/42 17/17/17
f 17/17/17 42/42/42 18/18/18
f 42/42/42 43/43/43 18/18/18
f 18/18/18 43/43/43 19/19/19
f 43/43/43 44/44/44 19/19/19
f 19/19/19 44/44/44 20/20/20
f 44/44/44 45/45/45 20/20/20
f 20/20/20 45/45/45 21/21/21
f 45/45/45 46/46/46 21/21/21
f 21/21/21 46/46/46 22/22/22
f 46/46/46 47/47/47 22/22/22
f 22/22/22 47/47/47 23/23/23
f 47/47/47 48/48/48 23/23/23
f 23/23/23 48/48/48 24/24/24
f 48/48/48 49/49/49 24/24/24
f 24/24/24 49/49/49 25/25/25
f 49/49/49 50/50/50 25/25/25
o 
v 0.8999999761581421 1.3 0
v 0.8827067613601685 1.3 0.17558129131793976
v 0.8314915895462036 1.3 0.3444150984287262
v 0.7483226656913757 1.3000000000000003 0.5000132322311401
v 0.6363961100578308 1.3000000000000003 0.6363961100578308
v 0.5000132322311401 1.3000000000000003 0.7483226656913757
v 0.3444150984287262 1.3000000000000003 0.8314915895462036
v 0.17558129131793976 1.3000000000000003 0.8827067613601685
v 5.5109105057610103e-17 1.3000000000000003 0.8999999761581421
v -0.17558129131793976 1.3000000000000003 0.8827067613601685
v -0.3444150984287262 1.3000000000000003 0.8314915895462036
v -0.5000132322311401 1.3000000000000003 0.7483226656913757
v -0.6363961100578308 1.3000000000000003 0.6363961100578308
v -0.7483226656913757 1.3000000000000003 0.5000132322311401
v -0.8314915895462036 1.3 0.3444150984287262
v -0.8827067613601685 1.3 0.17558129131793976
v -0.8999999761581421 1.3 1.1021821011522021e-16
v -0.8827067613601685 1.3 -0.17558129131793976
v -0.8314915895462036 1.3 -0.3444150984287262
v -0.7483226656913757 1.2999999999999998 -0.5000132322311401
v -0.6363961100578308 1.2999999999999998 -0.6363961100578308
v -0.5000132322311401 1.2999999999999998 -0.7483226656913757
v -0.3444150984287262 1.2999999999999998 -0.8314915895462036
v -0.17558129131793976 1.2999999999999998 -0.8827067613601685
v -1.6532731848155276e-16 1.2999999999999998 -0.8999999761581421
v 0.17558129131793976 1.2999999999999998 -0.8827067613601685
v 0.3444150984287262 1.2999999999999998 -0.8314915895462036
v 0.5000132322311401 1.2999999999999998 -0.7483226656913757
v 0.6363961100578308 1.2999999999999998 -0.6363961100578308
v 0.7483226656913757 1.2999999999999998 -0.5000132322311401
v 0.8314915895462036 1.3 -0.3444150984287262
v 0.8827067613601685 1.3 -0.17558129131793976
v 0.8999999761581421 1.3 -2.2043642023044041e-16
v 0.8847213387489319 1.252977180480957 1.0441163382566947e-17
v 0.867721676826477 1.252977180480957 0.17260058224201202
v 0.8173759579658508 1.252977180480957 0.33856821060180664
v 0.7356189489364624 1.2529771804809573 0.4915248453617096
v 0.6255924701690674 1.2529771804809573 0.6255924701690674
v 0.4915248453617096 1.2529771804809573 0.7356189489364624
v 0.33856821060180664 1.2529771804809573 0.8173759579658508
v 0.17260058224201202 1.2529771804809573 0.867721676826477
v 5.417356047609018e-17 1.2529771804809573 0.8847213387489319
v -0.17260058224201202 1.2529771804809573 0.867721676826477
v -0.33856821060180664 1.2529771804809573 0.8173759579658508
v -0.4915248453617096 1.2529771804809573 0.7356189489364624
v -0.6255924701690674 1.2529771804809573 0.6255924701690674
v -0.7356189489364624 1.2529771804809573 0.4915248453617096
v -0.8173759579658508 1.252977180480957 0.33856821060180664
v -0.867721676826477 1.252977180480957 0.17260058224201202
v -0.8847213387489319 1.252977180480957 1.187882843347473e-16
v -0.867721676826477 1.252977180480957 -0.17260058224201202
v -0.8173759579658508 1.252977180480957 -0.33856821060180664
v -0.7356189489364624 1.2529771804809569 -0.4915248453617096
v -0.6255924701690674 1.2529771804809569 -0.6255924701690674
v -0.4915248453617096 1.2529771804809569 -0.7356189489364624
v -0.33856821060180664 1.2529771804809569 -0.8173759579658508
v -0.17260058224201202 1.2529771804809569 -0.867721676826477
v -1.6252067481082564e-16 1.2529771804809569 -0.8847213387489319
v 0.17260058224201202 1.2529771804809569 -0.867721676826477
v 0.33856821060180664 1.2529771804809569 -0.8173759579658508
v 0.4915248453617096 1.2529771804809569 -0.7356189489364624
v 0.6255924701690674 1.2529771804809569 -0.6255924701690674
v 0.7356189489364624 1.2529771804809569 -0.4915248453617096
v 0.8173759579658508 1.252977180480957 -0.33856821060180664
v 0.867721676826477 1.252977180480957 -0.17260058224201202
v 0.8847213387489319 1.252977180480957 -2.0625307852179377e-16
v 0.8447213768959045 1.2239154756069184 1.6894158159770726e-17
v 0.8284902572631836 1.2239154756069184 0.16479696333408358
v 0.7804207801818848 1.2239154756069184 0.3232608735561371
v 0.7023601531982422 1.2239154756069186 0.4693020284175873
v 0.5973082184791565 1.2239154756069186 0.5973082184791565
v 0.4693020284175873 1.2239154756069186 0.7023601531982422
v 0.3232608735561371 1.2239154756069186 0.7804207801818848
v 0.16479696333408356 1.2239154756069186 0.8284902572631836
v 5.172426544743086e-17 1.2239154756069186 0.8447213768959045
v -0.16479696333408356 1.2239154756069186 0.8284902572631836
v -0.3232608735561371 1.2239154756069186 0.7804207801818848
v -0.4693020284175873 1.2239154756069186 0.7023601531982422
v -0.5973082184791565 1.2239154756069186 0.5973082184791565
v -0.7023601531982422 1.2239154756069186 0.4693020284175873
v -0.7804207801818848 1.2239154756069184 0.3232608735561371
v -0.8284902572631836 1.2239154756069184 0.16479696333408358
v -0.8447213768959045 1.2239154756069184 1.2034268905463245e-16
v -0.8284902572631836 1.2239154756069184 -0.16479696333408353
v -0.7804207801818848 1.2239154756069184 -0.3232608735561371
v -0.7023601531982422 1.2239154756069182 -0.4693020284175873
v -0.5973082184791565 1.2239154756069182 -0.5973082184791565
v -0.4693020284175873 1.2239154756069182 -0.7023601531982422
v -0.3232608735561371 1.2239154756069182 -0.7804207801818848
v -0.16479696333408356 1.2239154756069182 -0.8284902572631836
v -1.551727963422926e-16 1.2239154756069182 -0.8447213768959045
v 0.16479696333408356 1.2239154756069182 -0.8284902572631836
v 0.3232608735561371 1.2239154756069182 -0.7804207801818848
v 0.4693020284175873 1.2239154756069182 -0.7023601531982422
v 0.5973082184791565 1.2239154756069182 -0.5973082184791565
v 0.7023601531982422 1.2239154756069182 -0.4693020284175873
v 0.7804207801818848 1.2239154756069184 -0.3232608735561371
v 0.8284902572631836 1.2239154756069184 -0.16479696333408353
v 0.8447213768959045 1.2239154756069184 -1.9000290362995273e-16
v 0.7952786684036255 1.2239154756069184 1.6894158159770726e-17
v 0.7799975872039795 1.2239154756069184 0.1551511734724045
v 0.7347416877746582 1.2239154756069184 0.3043399453163147
v 0.6612499952316284 1.2239154756069184 0.44183313846588135
v 0.5623469352722168 1.2239154756069186 0.5623469352722168
v 0.44183313846588135 1.2239154756069186 0.6612499952316284
v 0.3043399453163147 1.2239154756069186 0.7347416877746582
v 0.15515117347240448 1.2239154756069186 0.7799975872039795
v 4.869677117059698e-17 1.2239154756069186 0.7952786684036255
v -0.15515117347240448 1.2239154756069186 0.7799975872039795
v -0.3043399453163147 1.2239154756069186 0.7347416877746582
v -0.44183313846588135 1.2239154756069186 0.6612499952316284
v -0.5623469352722168 1.2239154756069186 0.5623469352722168
v -0.6612499952316284 1.2239154756069184 0.44183313846588135
v -0.7347416877746582 1.2239154756069184 0.3043399453163147
v -0.7799975872039795 1.2239154756069184 0.1551511734724045
v -0.7952786684036255 1.2239154756069184 1.1428770050096469e-16
v -0.7799975872039795 1.2239154756069184 -0.15515117347240445
v -0.7347416877746582 1.2239154756069184 -0.3043399453163147
v -0.6612499952316284 1.2239154756069184 -0.44183313846588135
v -0.5623469352722168 1.2239154756069182 -0.5623469352722168
v -0.44183313846588135 1.2239154756069182 -0.6612499952316284
v -0.3043399453163147 1.2239154756069182 -0.7347416877746582
v -0.15515117347240448 1.2239154756069182 -0.7799975872039795
v -1.4609031351179094e-16 1.2239154756069182 -0.7952786684036255
v 0.15515117347240448 1.2239154756069182 -0.7799975872039795
v 0.3043399453163147 1.2239154756069182 -0.7347416877746582
v 0.44183313846588135 1.2239154756069182 -0.6612499952316284
v 0.5623469352722168 1.2239154756069182 -0.5623469352722168
v 0.6612499952316284 1.2239154756069184 -0.44183313846588135
v 0.7347416877746582 1.2239154756069184 -0.3043399453163147
v 0.7799975872039795 1.2239154756069184 -0.15515117347240445
v 0.7952786684036255 1.2239154756069184 -1.778929265226172e-16
v 0.7552786469459534 1.252977180480957 1.0441163382566947e-17
v 0.740766167640686 1.252977180480957 0.147347554564476
v 0.6977864503860474 1.252977180480957 0.28903260827064514
v 0.627991259098053 1.252977180480957 0.41961032152175903
v 0.5340626239776611 1.2529771804809573 0.5340626239776611
v 0.41961032152175903 1.2529771804809573 0.627991259098053
v 0.28903260827064514 1.2529771804809573 0.6977864503860474
v 0.147347554564476 1.2529771804809573 0.740766167640686
v 4.6247479450660115e-17 1.2529771804809573 0.7552786469459534
v -0.147347554564476 1.2529771804809573 0.740766167640686
v -0.28903260827064514 1.2529771804809573 0.6977864503860474
v -0.41961032152175903 1.2529771804809573 0.627991259098053
v -0.5340626239776611 1.2529771804809573 0.5340626239776611
v -0.627991259098053 1.252977180480957 0.41961032152175903
v -0.6977864503860474 1.252977180480957 0.28903260827064514
v -0.740766167640686 1.252977180480957 0.147347554564476
v -0.7552786469459534 1.252977180480957 1.0293612228388718e-16
v -0.740766167640686 1.252977180480957 -0.147347554564476
v -0.6977864503860474 1.252977180480957 -0.28903260827064514
v -0.627991259098053 1.252977180480957 -0.41961032152175903
v -0.5340626239776611 1.2529771804809569 -0.5340626239776611
v -0.41961032152175903 1.2529771804809569 -0.627991259098053
v -0.28903260827064514 1.2529771804809569 -0.6977864503860474
v -0.147347554564476 1.2529771804809569 -0.740766167640686
v -1.387424350432579e-16 1.2529771804809569 -0.7552786469459534
v 0.147347554564476 1.2529771804809569 -0.740766167640686
v 0.28903260827064514 1.2529771804809569 -0.6977864503860474
v 0.41961032152175903 1.2529771804809569 -0.627991259098053
v 0.5340626239776611 1.2529771804809569 -0.5340626239776611
v 0.627991259098053 1.252977180480957 -0.41961032152175903
v 0.6977864503860474 1.252977180480957 -0.28903260827064514
v 0.740766167640686 1.252977180480957 -0.147347554564476
v 0.7552786469459534 1.252977180480957 -1.7454875442007351e-16
v 0.7400000095367432 1.3 2.175409702237058e-33
v 0.7257810831069946 1.3 0.14436684548854828
v 0.6836708784103394 1.3 0.283185750246048
v 0.6152875423431396 1.3 0.4111219644546509
v 0.5232590436935425 1.3 0.5232590436935425
v 0.4111219644546509 1.3000000000000003 0.6152875423431396
v 0.283185750246048 1.3000000000000003 0.6836708784103394
v 0.14436684548854828 1.3000000000000003 0.7257810831069946
v 4.531193156041774e-17 1.3000000000000003 0.7400000095367432
v -0.14436684548854828 1.3000000000000003 0.7257810831069946
v -0.283185750246048 1.3000000000000003 0.6836708784103394
v -0.4111219644546509 1.3000000000000003 0.6152875423431396
v -0.5232590436935425 1.3 0.5232590436935425
v -0.6152875423431396 1.3 0.4111219644546509
v -0.6836708784103394 1.3 0.283185750246048
v -0.7257810831069946 1.3 0.14436684548854828
v -0.7400000095367432 1.3 9.062386312083548e-17
v -0.7257810831069946 1.3 -0.14436684548854828
v -0.6836708784103394 1.3 -0.283185750246048
v -0.6152875423431396 1.3 -0.4111219644546509
v -0.5232590436935425 1.2999999999999998 -0.5232590436935425
v -0.4111219644546509 1.2999999999999998 -0.6152875423431396
v -0.283185750246048 1.2999999999999998 -0.6836708784103394
v -0.14436684548854828 1.2999999999999998 -0.7257810831069946
v -1.3593579137253077e-16 1.2999999999999998 -0.7400000095367432
v 0.14436684548854828 1.2999999999999998 -0.7257810831069946
v 0.283185750246048 1.2999999999999998 -0.6836708784103394
v 0.4111219644546509 1.2999999999999998 -0.6152875423431396
v 0.5232590436935425 1.2999999999999998 -0.5232590436935425
v 0.6152875423431396 1.3 -0.4111219644546509
v 0.6836708784103394 1.3 -0.283185750246048
v 0.7257810831069946 1.3 -0.14436684548854828
v 0.7400000095367432 1.3 -1.8124772624167096e-16
v 0.7552786469459534 1.347022819519043 -1.0441163382566947e-17
v 0.740766167640686 1.347022819519043 0.147347554564476
v 0.6977864503860474 1.347022819519043 0.28903260827064514
v 0.627991259098053 1.347022819519043 0.41961032152175903
v 0.5340626239776611 1.3470228195190432 0.5340626239776611
v 0.41961032152175903 1.3470228195190432 0.627991259098053
v 0.28903260827064514 1.3470228195190432 0.6977864503860474
v 0.147347554564476 1.3470228195190432 0.740766167640686
v 4.6247479450660115e-17 1.3470228195190432 0.7552786469459534
v -0.147347554564476 1.3470228195190432 0.740766167640686
v -0.28903260827064514 1.3470228195190432 0.6977864503860474
v -0.41961032152175903 1.3470228195190432 0.627991259098053
v -0.5340626239776611 1.3470228195190432 0.5340626239776611
v -0.627991259098053 1.347022819519043 0.41961032152175903
v -0.6977864503860474 1.347022819519043 0.28903260827064514
v -0.740766167640686 1.347022819519043 0.147347554564476
v -0.7552786469459534 1.347022819519043 8.205379551875328e-17
v -0.740766167640686 1.347022819519043 -0.147347554564476
v -0.6977864503860474 1.347022819519043 -0.28903260827064514
v -0.627991259098053 1.347022819519043 -0.41961032152175903
v -0.5340626239776611 1.3470228195190428 -0.5340626239776611
v -0.41961032152175903 1.3470228195190428 -0.627991259098053
v -0.28903260827064514 1.3470228195190428 -0.6977864503860474
v -0.147347554564476 1.3470228195190428 -0.740766167640686
v -1.387424350432579e-16 1.3470228195190428 -0.7552786469459534
v 0.147347554564476 1.3470228195190428 -0.740766167640686
v 0.28903260827064514 1.3470228195190428 -0.6977864503860474
v 0.41961032152175903 1.3470228195190428 -0.627991259098053
v 0.5340626239776611 1.3470228195190428 -0.5340626239776611
v 0.627991259098053 1.347022819519043 -0.41961032152175903
v 0.6977864503860474 1.347022819519043 -0.28903260827064514
v 0.740766167640686 1.347022819519043 -0.147347554564476
v 0.7552786469459534 1.347022819519043 -1.954310811852074e-16
v 0.7952786684036255 1.3760845243930817 -1.6894158159770726e-17
v 0.7799975872039795 1.3760845243930817 0.15515117347240445
v 0.7347416877746582 1.3760845243930817 0.3043399453163147
v 0.6612499952316284 1.3760845243930817 0.44183313846588135
v 0.5623469352722168 1.376084524393082 0.5623469352722168
v 0.44183313846588135 1.376084524393082 0.6612499952316284
v 0.3043399453163147 1.376084524393082 0.7347416877746582
v 0.15515117347240448 1.376084524393082 0.7799975872039795
v 4.869677117059698e-17 1.376084524393082 0.7952786684036255
v -0.15515117347240448 1.376084524393082 0.7799975872039795
v -0.3043399453163147 1.376084524393082 0.7347416877746582
v -0.44183313846588135 1.376084524393082 0.6612499952316284
v -0.5623469352722168 1.376084524393082 0.5623469352722168
v -0.6612499952316284 1.3760845243930817 0.44183313846588135
v -0.7347416877746582 1.3760845243930817 0.3043399453163147
v -0.7799975872039795 1.3760845243930817 0.15515117347240445
v -0.7952786684036255 1.3760845243930817 8.049938418142324e-17
v -0.7799975872039795 1.3760845243930817 -0.1551511734724045
v -0.7347416877746582 1.3760845243930817 -0.3043399453163147
v -0.6612499952316284 1.3760845243930817 -0.44183313846588135
v -0.5623469352722168 1.3760845243930815 -0.5623469352722168
v -0.44183313846588135 1.3760845243930815 -0.6612499952316284
v -0.3043399453163147 1.3760845243930815 -0.7347416877746582
v -0.15515117347240448 1.3760845243930815 -0.7799975872039795
v -1.4609031351179094e-16 1.3760845243930815 -0.7952786684036255
v 0.15515117347240448 1.3760845243930815 -0.7799975872039795
v 0.3043399453163147 1.3760845243930815 -0.7347416877746582
v 0.44183313846588135 1.3760845243930815 -0.6612499952316284
v 0.5623469352722168 1.3760845243930815 -0.5623469352722168
v 0.6612499952316284 1.3760845243930817 -0.44183313846588135
v 0.7347416877746582 1.3760845243930817 -0.3043399453163147
v 0.7799975872039795 1.3760845243930817 -0.1551511734724045
v 0.7952786684036255 1.3760845243930817 -2.1168124284215865e-16
v 0.8447213768959045 1.3760845243930817 -1.6894158159770726e-17
v 0.8284902572631836 1.3760845243930817 0.16479696333408353
v 0.7804207801818848 1.3760845243930817 0.3232608735561371
v 0.7023601531982422 1.376084524393082 0.4693020284175873
v 0.5973082184791565 1.376084524393082 0.5973082184791565
v 0.4693020284175873 1.376084524393082 0.7023601531982422
v 0.3232608735561371 1.376084524393082 0.7804207801818848
v 0.16479696333408356 1.376084524393082 0.8284902572631836
v 5.172426544743086e-17 1.376084524393082 0.8447213768959045
v -0.16479696333408356 1.376084524393082 0.8284902572631836
v -0.3232608735561371 1.376084524393082 0.7804207801818848
v -0.4693020284175873 1.376084524393082 0.7023601531982422
v -0.5973082184791565 1.376084524393082 0.5973082184791565
v -0.7023601531982422 1.376084524393082 0.4693020284175873
v -0.7804207801818848 1.3760845243930817 0.3232608735561371
v -0.8284902572631836 1.3760845243930817 0.16479696333408353
v -0.8447213768959045 1.3760845243930817 8.6554372735091e-17
v -0.8284902572631836 1.3760845243930817 -0.16479696333408358
v -0.7804207801818848 1.3760845243930817 -0.3232608735561371
v -0.7023601531982422 1.3760845243930815 -0.4693020284175873
v -0.5973082184791565 1.3760845243930815 -0.5973082184791565
v -0.4693020284175873 1.3760845243930815 -0.7023601531982422
v -0.3232608735561371 1.3760845243930815 -0.7804207801818848
v -0.16479696333408356 1.3760845243930815 -0.8284902572631836
v -1.551727963422926e-16 1.3760845243930815 -0.8447213768959045
v 0.16479696333408356 1.3760845243930815 -0.8284902572631836
v 0.3232608735561371 1.3760845243930815 -0.7804207801818848
v 0.4693020284175873 1.3760845243930815 -0.7023601531982422
v 0.5973082184791565 1.3760845243930815 -0.5973082184791565
v 0.7023601531982422 1.3760845243930815 -0.4693020284175873
v 0.7804207801818848 1.3760845243930817 -0.3232608735561371
v 0.8284902572631836 1.3760845243930817 -0.16479696333408358
v 0.8447213768959045 1.3760845243930817 -2.237912199494942e-16
v 0.8847213387489319 1.347022819519043 -1.0441163382566947e-17
v 0.867721676826477 1.347022819519043 0.17260058224201202
v 0.8173759579658508 1.347022819519043 0.33856821060180664
v 0.7356189489364624 1.3470228195190432 0.4915248453617096
v 0.6255924701690674 1.3470228195190432 0.6255924701690674
v 0.4915248453617096 1.3470228195190432 0.7356189489364624
v 0.33856821060180664 1.3470228195190432 0.8173759579658508
v 0.17260058224201202 1.3470228195190432 0.867721676826477
v 5.417356047609018e-17 1.3470228195190432 0.8847213387489319
v -0.17260058224201202 1.3470228195190432 0.867721676826477
v -0.33856821060180664 1.3470228195190432 0.8173759579658508
v -0.4915248453617096 1.3470228195190432 0.7356189489364624
v -0.6255924701690674 1.3470228195190432 0.6255924701690674
v -0.7356189489364624 1.3470228195190432 0.4915248453617096
v -0.8173759579658508 1.347022819519043 0.33856821060180664
v -0.867721676826477 1.347022819519043 0.17260058224201202
v -0.8847213387489319 1.347022819519043 9.790595756961341e-17
v -0.867721676826477 1.347022819519043 -0.17260058224201202
v -0.8173759579658508 1.347022819519043 -0.33856821060180664
v -0.7356189489364624 1.3470228195190428 -0.4915248453617096
v -0.6255924701690674 1.3470228195190428 -0.6255924701690674
v -0.4915248453617096 1.3470228195190428 -0.7356189489364624
v -0.33856821060180664 1.3470228195190428 -0.8173759579658508
v -0.17260058224201202 1.3470228195190428 -0.867721676826477
v -1.6252067481082564e-16 1.3470228195190428 -0.8847213387489319
v 0.17260058224201202 1.3470228195190428 -0.867721676826477
v 0.33856821060180664 1.3470228195190428 -0.8173759579658508
v 0.4915248453617096 1.3470228195190428 -0.7356189489364624
v 0.6255924701690674 1.3470228195190428 -0.6255924701690674
v 0.7356189489364624 1.3470228195190428 -0.4915248453617096
v 0.8173759579658508 1.347022819519043 -0.33856821060180664
v 0.867721676826477 1.347022819519043 -0.17260058224201202
v 0.8847213387489319 1.347022819519043 -2.2713540528692766e-16
v 0.8999999761581421 1.3 -4.350819404474116e-33
v 0.8827067613601685 1.3 0.17558129131793976
v 0.8314915895462036 1.3 0.3444150984287262
v 0.7483226656913757 1.3000000000000003 0.5000132322311401
v 0.6363961100578308 1.3000000000000003 0.6363961100578308
v 0.5000132322311401 1.3000000000000003 0.7483226656913757
v 0.3444150984287262 1.3000000000000003 0.8314915895462036
v 0.17558129131793976 1.3000000000000003 0.8827067613601685
v 5.5109105057610103e-17 1.3000000000000003 0.8999999761581421
v -0.17558129131793976 1.3000000000000003 0.8827067613601685
v -0.3444150984287262 1.3000000000000003 0.8314915895462036
v -0.5000132322311401 1.3000000000000003 0.7483226656913757
v -0.6363961100578308 1.3000000000000003 0.6363961100578308
v -0.7483226656913757 1.3000000000000003 0.5000132322311401
v -0.8314915895462036 1.3 0.3444150984287262
v -0.8827067613601685 1.3 0.17558129131793976
v -0.8999999761581421 1.3 1.1021821011522021e-16
v -0.8827067613601685 1.3 -0.17558129131793976
v -0.8314915895462036 1.3 -0.3444150984287262
v -0.7483226656913757 1.3 -0.5000132322311401
v -0.6363961100578308 1.2999999999999998 -0.6363961100578308
v -0.5000132322311401 1.2999999999999998 -0.7483226656913757
v -0.3444150984287262 1.2999999999999998 -0.8314915895462036
v -0.17558129131793976 1.2999999999999998 -0.8827067613601685
v -1.6532731848155276e-16 1.2999999999999998 -0.8999999761581421
v 0.17558129131793976 1.2999999999999998 -0.8827067613601685
v 0.3444150984287262 1.2999999999999998 -0.8314915895462036
v 0.5000132322311401 1.2999999999999998 -0.7483226656913757
v 0.6363961100578308 1.2999999999999998 -0.6363961100578308
v 0.7483226656913757 1.3 -0.5000132322311401
v 0.8314915895462036 1.3 -0.3444150984287262
v 0.8827067613601685 1.3 -0.17558129131793976
v 0.8999999761581421 1.3 -2.2043642023044041e-16
vt 0 0
vt 0.03125 0
vt 0.0625 0
vt 0.09375 0
vt 0.125 0
vt 0.15625 0
vt 0.1875 0
vt 0.21875 0
vt 0.25 0
vt 0.28125 0
vt 0.3125 0
vt 0.34375 0
vt 0.375 0
vt 0.40625 0
vt 0.4375 0
vt 0.46875 0
vt 0.5 0
vt 0.53125 0
vt 0.5625 0
vt 0.59375 0
vt 0.625 0
vt 0.65625 0
vt 0.6875 0
vt 0.71875 0
vt 0.75 0
vt 0.78125 0
vt 0.8125 0
vt 0.84375 0
vt 0.875 0
vt 0.90625 0
vt 0.9375 0
vt 0.96875 0
vt 1 0
vt 0 0.10000000149011612
vt 0.03125 0.10000000149011612
vt 0.0625 0.10000000149011612
vt 0.09375 0.10000000149011612
vt 0.125 0.10000000149011612
vt 0.15625 0.10000000149011612
vt 0.1875 0.10000000149011612
vt 0.21875 0.10000000149011612
vt 0.25 0.10000000149011612
vt 0.28125 0.10000000149011612
vt 0.3125 0.10000000149011612
vt 0.34375 0.10000000149011612
vt 0.375 0.10000000149011612
vt 0.40625 0.10000000149011612
vt 0.4375 0.10000000149011612
vt 0.46875 0.10000000149011612
vt 0.5 0.10000000149011612
vt 0.53125 0.10000000149011612
vt 0.5625 0.10000000149011612
vt 0.59375 0.10000000149011612
vt 0.625 0.10000000149011612
vt 0.65625 0.10000000149011612
vt 0.6875 0.10000000149011612
vt 0.71875 0.10000000149011612
vt 0.75 0.10000000149011612
vt 0.78125 0.10000000149011612
vt 0.8125 0.10000000149011612
vt 0.84375 0.10000000149011612
vt 0.875 0.10000000149011612
vt 0.90625 0.10000000149011612
vt 0.9375 0.10000000149011612
vt 0.96875 0.10000000149011612
vt 1 0.10000000149011612
vt 0 0.20000000298023224
vt 0.03125 0.20000000298023224
vt 0.0625 0.20000000298023224
vt 0.09375 0.20000000298023224
vt 0.125 0.20000000298023224
vt 0.15625 0.20000000298023224
vt 0.1875 0.20000000298023224
vt 0.21875 0.20000000298023224
vt 0.25 0.20000000298023224
vt 0.28125 0.20000000298023224
vt 0.3125 0.20000000298023224
vt 0.34375 0.20000000298023224
vt 0.375 0.20000000298023224
vt 0.40625 0.20000000298023224
vt 0.4375 0.20000000298023224
vt 0.46875 0.20000000298023224
vt 0.5 0.20000000298023224
vt 0.53125 0.20000000298023224
vt 0.5625 0.20000000298023224
vt 0.59375 0.20000000298023224
vt 0.625 0.20000000298023224
vt 0.65625 0.20000000298023224
vt 0.6875 0.20000000298023224
vt 0.71875 0.20000000298023224
vt 0.75 0.20000000298023224
vt 0.78125 0.20000000298023224
vt 0.8125 0.20000000298023224
vt 0.84375 0.20000000298023224
vt 0.875 0.20000000298023224
vt 0.90625 0.20000000298023224
vt 0.9375 0.20000000298023224
vt 0.96875 0.20000000298023224
vt 1 0.20000000298023224
vt 0 0.30000001192092896
vt 0.03125 0.30000001192092896
vt 0.0625 0.30000001192092896
vt 0.09375 0.30000001192092896
vt 0.125 0.30000001192092896
vt 0.15625 0.30000001192092896
vt 0.1875 0.30000001192092896
vt 0.21875 0.30000001192092896
vt 0.25 0.30000001192092896
vt 0.28125 0.30000001192092896
vt 0.3125 0.30000001192092896
vt 0.34375 0.30000001192092896
vt 0.375 0.30000001192092896
vt 0.40625 0.30000001192092896
vt 0.4375 0.30000001192092896
vt 0.46875 0.30000001192092896
vt 0.5 0.30000001192092896
vt 0.53125 0.30000001192092896
vt 0.5625 0.30000001192092896
vt 0.59375 0.30000001192092896
vt 0.625 0.30000001192092896
vt 0.65625 0.30000001192092896
vt 0.6875 0.30000001192092896
vt 0.71875 0.30000001192092896
vt 0.75 0.30000001192092896
vt 0.78125 0.30000001192092896
vt 0.8125 0.30000001192092896
vt 0.84375 0.30000001192092896
vt 0.875 0.30000001192092896
vt 0.90625 0.30000001192092896
vt 0.9375 0.30000001192092896
vt 0.96875 0.30000001192092896
vt 1 0.30000001192092896
vt 0 0.4000000059604645
vt 0.03125 0.4000000059604645
vt 0.0625 0.4000000059604645
vt 0.09375 0.4000000059604645
vt 0.125 0.4000000059604645
vt 0.15625 0.4000000059604645
vt 0.1875 0.4000000059604645
vt 0.21875 0.4000000059604645
vt 0.25 0.4000000059604645
vt 0.28125 0.4000000059604645
vt 0.3125 0.4000000059604645
vt 0.34375 0.4000000059604645
vt 0.375 0.4000000059604645
vt 0.40625 0.4000000059604645
vt 0.4375 0.4000000059604645
vt 0.46875 0.4000000059604645
vt 0.5 0.4000000059604645
vt 0.53125 0.4000000059604645
vt 0.5625 0.4000000059604645
vt 0.59375 0.4000000059604645
vt 0.625 0.4000000059604645
vt 0.65625 0.4000000059604645
vt 0.6875 0.4000000059604645
vt 0.71875 0.4000000059604645
vt 0.75 0.4000000059604645
vt 0.78125 0.4000000059604645
vt 0.8125 0.4000000059604645
vt 0.84375 0.4000000059604645
vt 0.875 0.4000000059604645
vt 0.90625 0.4000000059604645
vt 0.9375 0.4000000059604645
vt 0.96875 0.4000000059604645
vt 1 0.4000000059604645
vt 0 0.5
vt 0.03125 0.5
vt 0.0625 0.5
vt 0.09375 0.5
vt 0.125 0.5
vt 0.15625 0.5
vt 0.1875 0.5
vt 0.21875 0.5
vt 0.25 0.5
vt 0.28125 0.5
vt 0.3125 0.5
vt 0.34375 0.5
vt 0.375 0.5
vt 0.40625 0.5
vt 0.4375 0.5
vt 0.46875 0.5
vt 0.5 0.5
vt 0.53125 0.5
vt 0.5625 0.5
vt 0.59375 0.5
vt 0.625 0.5
vt 0.65625 0.5
vt 0.6875 0.5
vt 0.71875 0.5
vt 0.75 0.5
vt 0.78125 0.5
vt 0.8125 0.5
vt 0.84375 0.5
vt 0.875 0.5
vt 0.90625 0.5
vt 0.9375 0.5
vt 0.96875 0.5
vt 1 0.5
vt 0 0.6000000238418579
vt 0.03125 0.6000000238418579
vt 0.0625 0.6000000238418579
vt 0.09375 0.6000000238418579
vt 0.125 0.6000000238418579
vt 0.15625 0.6000000238418579
vt 0.1875 0.6000000238418579
vt 0.21875 0.6000000238418579
vt 0.25 0.6000000238418579
vt 0.28125 0.6000000238418579
vt 0.3125 0.6000000238418579
vt 0.34375 0.6000000238418579
vt 0.375 0.6000000238418579
vt 0.40625 0.6000000238418579
vt 0.4375 0.6000000238418579
vt 0.46875 0.6000000238418579
vt 0.5 0.6000000238418579
vt 0.53125 0.6000000238418579
vt 0.5625 0.6000000238418579
vt 0.59375 0.6000000238418579
vt 0.625 0.6000000238418579
vt 0.65625 0.6000000238418579
vt 0.6875 0.6000000238418579
vt 0.71875 0.6000000238418579
vt 0.75 0.6000000238418579
vt 0.78125 0.6000000238418579
vt 0.8125 0.6000000238418579
vt 0.84375 0.6000000238418579
vt 0.875 0.6000000238418579
vt 0.90625 0.6000000238418579
vt 0.9375 0.6000000238418579
vt 0.96875 0.6000000238418579
vt 1 0.6000000238418579
vt 0 0.699999988079071
vt 0.03125 0.699999988079071
vt 0.0625 0.699999988079071
vt 0.09375 0.699999988079071
vt 0.125 0.699999988079071
vt 0.15625 0.699999988079071
vt 0.1875 0.699999988079071
vt 0.21875 0.699999988079071
vt 0.25 0.699999988079071
vt 0.28125 0.699999988079071
vt 0.3125 0.699999988079071
vt 0.34375 0.699999988079071
vt 0.375 0.699999988079071
vt 0.40625 0.699999988079071
vt 0.4375 0.699999988079071
vt 0.46875 0.699999988079071
vt 0.5 0.699999988079071
vt 0.53125 0.699999988079071
vt 0.5625 0.699999988079071
vt 0.59375 0.699999988079071
vt 0.625 0.699999988079071
vt 0.65625 0.699999988079071
vt 0.6875 0.699999988079071
vt 0.71875 0.699999988079071
vt 0.75 0.699999988079071
vt 0.78125 0.699999988079071
vt 0.8125 0.699999988079071
vt 0.84375 0.699999988079071
vt 0.875 0.699999988079071
vt 0.90625 0.699999988079071
vt 0.9375 0.699999988079071
vt 0.96875 0.699999988079071
vt 1 0.699999988079071
vt 0 0.800000011920929
vt 0.03125 0.800000011920929
vt 0.0625 0.800000011920929
vt 0.09375 0.800000011920929
vt 0.125 0.800000011920929
vt 0.15625 0.800000011920929
vt 0.1875 0.800000011920929
vt 0.21875 0.800000011920929
vt 0.25 0.800000011920929
vt 0.28125 0.800000011920929
vt 0.3125 0.800000011920929
vt 0.34375 0.800000011920929
vt 0.375 0.800000011920929
vt 0.40625 0.800000011920929
vt 0.4375 0.800000011920929
vt 0.46875 0.800000011920929
vt 0.5 0.800000011920929
vt 0.53125 0.800000011920929
vt 0.5625 0.800000011920929
vt 0.59375 0.800000011920929
vt 0.625 0.800000011920929
vt 0.65625 0.800000011920929
vt 0.6875 0.800000011920929
vt 0.71875 0.800000011920929
vt 0.75 0.800000011920929
vt 0.78125 0.800000011920929
vt 0.8125 0.800000011920929
vt 0.84375 0.800000011920929
vt 0.875 0.800000011920929
vt 0.90625 0.800000011920929
vt 0.9375 0.800000011920929
vt 0.96875 0.800000011920929
vt 1 0.800000011920929
vt 0 0.8999999761581421
vt 0.03125 0.8999999761581421
vt 0.0625 0.8999999761581421
vt 0.09375 0.8999999761581421
vt 0.125 0.8999999761581421
vt 0.15625 0.8999999761581421
vt 0.1875 0.8999999761581421
vt 0.21875 0.8999999761581421
vt 0.25 0.8999999761581421
vt 0.28125 0.8999999761581421
vt 0.3125 0.8999999761581421
vt 0.34375 0.8999999761581421
vt 0.375 0.8999999761581421
vt 0.40625 0.8999999761581421
vt 0.4375 0.8999999761581421
vt 0.46875 0.8999999761581421
vt 0.5 0.8999999761581421
vt 0.53125 0.8999999761581421
vt 0.5625 0.8999999761581421
vt 0.59375 0.8999999761581421
vt 0.625 0.8999999761581421
vt 0.65625 0.8999999761581421
vt 0.6875 0.8999999761581421
vt 0.71875 0.8999999761581421
vt 0.75 0.8999999761581421
vt 0.78125 0.8999999761581421
vt 0.8125 0.8999999761581421
vt 0.84375 0.8999999761581421
vt 0.875 0.8999999761581421
vt 0.90625 0.8999999761581421
vt 0.9375 0.8999999761581421
vt 0.96875 0.8999999761581421
vt 1 0.8999999761581421
vt 0 1
vt 0.03125 1
vt 0.0625 1
vt 0.09375 1
vt 0.125 1
vt 0.15625 1
vt 0.1875 1
vt 0.21875 1
vt 0.25 1
vt 0.28125 1
vt 0.3125 1
vt 0.34375 1
vt 0.375 1
vt 0.40625 1
vt 0.4375 1
vt 0.46875 1
vt 0.5 1
vt 0.53125 1
vt 0.5625 1
vt 0.59375 1
vt 0.625 1
vt 0.65625 1
vt 0.6875 1
vt 0.71875 1
vt 0.75 1
vt 0.78125 1
vt 0.8125 1
vt 0.84375 1
vt 0.875 1
vt 0.90625 1
vt 0.9375 1
vt 0.96875 1
vt 1 1
vn 1 0 0
vn 0.9807852789517083 4.331875509709332e-17 0.19509032931342324
vn 0.9238795305660377 8.497279259363763e-17 0.3826834370613369
vn 0.8314696016585884 1.233613764360728e-16 0.555570248949409
vn 0.7071067811865476 1.5700924586837752e-16 0.7071067811865476
vn 0.555570248949409 1.8462333920745442e-16 0.8314696016585884
vn 0.3826834370613369 2.0514246536285922e-16 0.9238795305660377
vn 0.19509032931342324 2.177780797811187e-16 0.9807852789517083
vn 6.123234262925839e-17 2.220446049250313e-16 1
vn -0.19509032931342324 2.177780797811187e-16 0.9807852789517083
vn -0.3826834370613369 2.0514246536285922e-16 0.9238795305660377
vn -0.555570248949409 1.8462333920745442e-16 0.8314696016585884
vn -0.7071067811865476 1.5700924586837752e-16 0.7071067811865476
vn -0.8314696016585884 1.233613764360728e-16 0.555570248949409
vn -0.9238795305660377 8.497279259363763e-17 0.3826834370613369
vn -0.9807852789517083 4.331875509709332e-17 0.19509032931342324
vn -1 2.7192622655495665e-32 1.2246468525851679e-16
vn -0.9807852789517083 -4.331875509709332e-17 -0.19509032931342324
vn -0.9238795305660377 -8.497279259363763e-17 -0.3826834370613369
vn -0.8314696016585884 -1.233613764360728e-16 -0.555570248949409
vn -0.7071067811865476 -1.5700924586837752e-16 -0.7071067811865476
vn -0.555570248949409 -1.8462333920745442e-16 -0.8314696016585884
vn -0.3826834370613369 -2.0514246536285922e-16 -0.9238795305660377
vn -0.19509032931342324 -2.177780797811187e-16 -0.9807852789517083
vn -1.8369701465288538e-16 -2.220446049250313e-16 -1
vn 0.19509032931342324 -2.177780797811187e-16 -0.9807852789517083
vn 0.3826834370613369 -2.0514246536285922e-16 -0.9238795305660377
vn 0.555570248949409 -1.8462333920745442e-16 -0.8314696016585884
vn 0.7071067811865476 -1.5700924586837752e-16 -0.7071067811865476
vn 0.8314696016585884 -1.233613764360728e-16 -0.555570248949409
vn 0.9238795305660377 -8.497279259363763e-17 -0.3826834370613369
vn 0.9807852789517083 -4.331875509709332e-17 -0.19509032931342324
vn 1 -5.438524531099133e-32 -2.4492937051703357e-16
vn 0.8090170011595983 -0.5877852429542022 1.3051454205252937e-16
vn 0.7934719534792954 -0.5877852595947886 0.15783138992240334
vn 0.747434252631547 -0.5877852394037334 0.30959740039641265
vn 0.6726730524540276 -0.5877852491130183 0.44946575556690377
vn 0.5720614113691512 -0.5877852356470594 0.5720614113691513
vn 0.44946575556690366 -0.5877852491130183 0.6726730524540278
vn 0.30959740039641254 -0.5877852394037334 0.7474342526315471
vn 0.1578313899224032 -0.5877852595947883 0.7934719534792956
vn 4.953800384026539e-17 -0.587785242954202 0.8090170011595984
vn -0.1578313899224032 -0.5877852595947883 0.7934719534792956
vn -0.30959740039641254 -0.5877852394037334 0.7474342526315471
vn -0.44946575556690366 -0.5877852491130183 0.6726730524540278
vn -0.5720614113691512 -0.5877852356470594 0.5720614113691513
vn -0.6726730524540276 -0.5877852491130183 0.44946575556690377
vn -0.747434252631547 -0.5877852394037334 0.30959740039641265
vn -0.7934719534792954 -0.5877852595947886 0.15783138992240334
vn -0.8090170011595983 -0.5877852429542022 2.2959054973306017e-16
vn -0.7934719534792954 -0.5877852595947886 -0.15783138992240306
vn -0.747434252631547 -0.5877852394037336 -0.3095974003964124
vn -0.6726730524540276 -0.5877852491130185 -0.44946575556690355
vn -0.5720614113691512 -0.5877852356470596 -0.5720614113691511
vn -0.44946575556690366 -0.5877852491130185 -0.6726730524540275
vn -0.30959740039641254 -0.5877852394037336 -0.7474342526315468
vn -0.1578313899224032 -0.5877852595947888 -0.7934719534792953
vn -1.4861400821207373e-16 -0.5877852429542024 -0.8090170011595982
vn 0.1578313899224032 -0.5877852595947888 -0.7934719534792953
vn 0.30959740039641254 -0.5877852394037336 -0.7474342526315468
vn 0.44946575556690366 -0.5877852491130185 -0.6726730524540275
vn 0.5720614113691512 -0.5877852356470596 -0.5720614113691511
vn 0.6726730524540276 -0.5877852491130185 -0.44946575556690355
vn 0.747434252631547 -0.5877852394037336 -0.3095974003964124
vn 0.7934719534792954 -0.5877852595947886 -0.15783138992240306
vn 0.8090170011595983 -0.5877852429542022 -6.763747330853221e-17
vn 0.3090169948284817 -0.9510565161477913 2.1117696838941298e-16
vn 0.30307930140102135 -0.9510565221939922 0.060286222758914536
vn 0.28549447015620777 -0.9510565186903915 0.11825567963839764
vn 0.25693824249922403 -0.9510565164207371 0.17168063989589044
vn 0.21850800088974703 -0.9510565215034975 0.21850800088974726
vn 0.17168063989589022 -0.951056516420737 0.25693824249922426
vn 0.11825567963839743 -0.9510565186903914 0.285494470156208
vn 0.06028622275891433 -0.9510565221939921 0.3030793014010216
vn 1.892183379232834e-17 -0.9510565161477912 0.30901699482848194
vn -0.06028622275891433 -0.9510565221939921 0.3030793014010216
vn -0.11825567963839743 -0.9510565186903914 0.285494470156208
vn -0.17168063989589022 -0.951056516420737 0.25693824249922426
vn -0.21850800088974703 -0.9510565215034975 0.21850800088974726
vn -0.25693824249922403 -0.9510565164207371 0.17168063989589044
vn -0.28549447015620777 -0.9510565186903915 0.11825567963839764
vn -0.30307930140102135 -0.9510565221939922 0.060286222758914536
vn -0.3090169948284817 -0.9510565161477913 2.4902063597406965e-16
vn -0.30307930140102135 -0.9510565221939922 -0.06028622275891412
vn -0.28549447015620777 -0.9510565186903915 -0.11825567963839723
vn -0.25693824249922403 -0.9510565164207371 -0.17168063989589
vn -0.21850800088974703 -0.9510565215034975 -0.2185080008897468
vn -0.17168063989589016 -0.951056516420737 -0.25693824249922376
vn -0.11825567963839743 -0.9510565186903917 -0.28549447015620755
vn -0.06028622275891433 -0.9510565221939923 -0.30307930140102113
vn -5.676549972262383e-17 -0.9510565161477914 -0.3090169948284815
vn 0.06028622275891433 -0.9510565221939923 -0.30307930140102113
vn 0.11825567963839743 -0.9510565186903917 -0.28549447015620755
vn 0.17168063989589016 -0.951056516420737 -0.25693824249922376
vn 0.21850800088974703 -0.9510565215034975 -0.2185080008897468
vn 0.25693824249922403 -0.9510565164207371 -0.17168063989589
vn 0.28549447015620777 -0.9510565186903915 -0.11825567963839723
vn 0.30307930140102135 -0.9510565221939922 -0.06028622275891412
vn 0.3090169948284817 -0.9510565161477913 1.3548963322009962e-16
vn -0.3090169948284817 -0.9510565161477913 2.1117696838941298e-16
vn -0.30307930140102135 -0.9510565221939922 -0.06028622275891412
vn -0.28549447015620777 -0.9510565186903915 -0.11825567963839723
vn -0.25693824249922403 -0.9510565164207371 -0.17168063989589
vn -0.21850800088974703 -0.9510565215034975 -0.2185080008897468
vn -0.17168063989589016 -0.951056516420737 -0.25693824249922376
vn -0.11825567963839743 -0.9510565186903917 -0.28549447015620755
vn -0.06028622275891433 -0.9510565221939923 -0.30307930140102113
vn -1.892183379232834e-17 -0.9510565161477914 -0.3090169948284815
vn 0.06028622275891433 -0.9510565221939923 -0.30307930140102113
vn 0.11825567963839743 -0.9510565186903917 -0.28549447015620755
vn 0.17168063989589016 -0.951056516420737 -0.25693824249922376
vn 0.21850800088974703 -0.9510565215034975 -0.2185080008897468
vn 0.25693824249922403 -0.9510565164207371 -0.17168063989589
vn 0.28549447015620777 -0.9510565186903915 -0.11825567963839723
vn 0.30307930140102135 -0.9510565221939922 -0.06028622275891412
vn 0.3090169948284817 -0.9510565161477913 1.733333008047563e-16
vn 0.30307930140102135 -0.9510565221939922 0.060286222758914536
vn 0.28549447015620777 -0.9510565186903915 0.11825567963839764
vn 0.25693824249922403 -0.9510565164207371 0.17168063989589044
vn 0.21850800088974703 -0.9510565215034975 0.21850800088974726
vn 0.17168063989589022 -0.951056516420737 0.25693824249922426
vn 0.11825567963839743 -0.9510565186903914 0.285494470156208
vn 0.06028622275891433 -0.9510565221939921 0.3030793014010216
vn 5.676549972262383e-17 -0.9510565161477912 0.30901699482848194
vn -0.06028622275891433 -0.9510565221939921 0.3030793014010216
vn -0.11825567963839743 -0.9510565186903914 0.285494470156208
vn -0.17168063989589022 -0.951056516420737 0.25693824249922426
vn -0.21850800088974703 -0.9510565215034975 0.21850800088974726
vn -0.25693824249922403 -0.9510565164207371 0.17168063989589044
vn -0.28549447015620777 -0.9510565186903915 0.11825567963839764
vn -0.30307930140102135 -0.9510565221939922 0.060286222758914536
vn -0.3090169948284817 -0.9510565161477913 2.8686430355872633e-16
vn -0.8090170011595983 -0.5877852429542022 1.3051454205252937e-16
vn -0.7934719534792954 -0.5877852595947886 -0.15783138992240306
vn -0.747434252631547 -0.5877852394037336 -0.3095974003964124
vn -0.6726730524540276 -0.5877852491130185 -0.44946575556690355
vn -0.5720614113691512 -0.5877852356470596 -0.5720614113691511
vn -0.44946575556690366 -0.5877852491130185 -0.6726730524540275
vn -0.30959740039641254 -0.5877852394037336 -0.7474342526315468
vn -0.1578313899224032 -0.5877852595947888 -0.7934719534792953
vn -4.953800384026539e-17 -0.5877852429542024 -0.8090170011595982
vn 0.1578313899224032 -0.5877852595947888 -0.7934719534792953
vn 0.30959740039641254 -0.5877852394037336 -0.7474342526315468
vn 0.44946575556690366 -0.5877852491130185 -0.6726730524540275
vn 0.5720614113691512 -0.5877852356470596 -0.5720614113691511
vn 0.6726730524540276 -0.5877852491130185 -0.44946575556690355
vn 0.747434252631547 -0.5877852394037336 -0.3095974003964124
vn 0.7934719534792954 -0.5877852595947886 -0.15783138992240306
vn 0.8090170011595983 -0.5877852429542022 3.1438534371998573e-17
vn 0.7934719534792954 -0.5877852595947886 0.15783138992240334
vn 0.747434252631547 -0.5877852394037334 0.30959740039641265
vn 0.6726730524540276 -0.5877852491130183 0.44946575556690377
vn 0.5720614113691512 -0.5877852356470594 0.5720614113691513
vn 0.44946575556690366 -0.5877852491130183 0.6726730524540278
vn 0.30959740039641254 -0.5877852394037334 0.7474342526315471
vn 0.1578313899224032 -0.5877852595947883 0.7934719534792956
vn 1.4861400821207373e-16 -0.587785242954202 0.8090170011595984
vn -0.1578313899224032 -0.5877852595947883 0.7934719534792956
vn -0.30959740039641254 -0.5877852394037334 0.7474342526315471
vn -0.44946575556690366 -0.5877852491130183 0.6726730524540278
vn -0.5720614113691512 -0.5877852356470594 0.5720614113691513
vn -0.6726730524540276 -0.5877852491130183 0.44946575556690377
vn -0.747434252631547 -0.5877852394037334 0.30959740039641265
vn -0.7934719534792954 -0.5877852595947886 0.15783138992240334
vn -0.8090170011595983 -0.5877852429542022 3.2866655741359094e-16
vn -1 -1.2246468525851679e-16 2.7192622655495665e-32
vn -0.9807852789517083 -1.657834438877544e-16 -0.19509032931342324
vn -0.9238795305660377 -2.0743748134659667e-16 -0.3826834370613369
vn -0.8314696016585884 -2.458260626116438e-16 -0.555570248949409
vn -0.7071067811865476 -2.7947393322278815e-16 -0.7071067811865476
vn -0.555570248949409 -3.0708802538302543e-16 -0.8314696016585884
vn -0.3826834370613369 -3.2760715411581825e-16 -0.9238795305660377
vn -0.19509032931342324 -3.4024276857177973e-16 -0.9807852789517083
vn -6.123234262925839e-17 -3.445092901835481e-16 -1
vn 0.19509032931342324 -3.4024276857177973e-16 -0.9807852789517083
vn 0.3826834370613369 -3.2760715411581825e-16 -0.9238795305660377
vn 0.555570248949409 -3.0708802538302543e-16 -0.8314696016585884
vn 0.7071067811865476 -2.7947393322278815e-16 -0.7071067811865476
vn 0.8314696016585884 -2.458260626116438e-16 -0.555570248949409
vn 0.9238795305660377 -2.0743748134659667e-16 -0.3826834370613369
vn 0.9807852789517083 -1.657834438877544e-16 -0.19509032931342324
vn 1 -1.224646852585168e-16 -1.2246468525851676e-16
vn 0.9807852789517083 -7.914593369356774e-17 0.19509032931342324
vn 0.9238795305660377 -3.74918961593214e-17 0.3826834370613369
vn 0.8314696016585884 8.966902605017834e-19 0.555570248949409
vn 0.7071067811865476 3.454455851396687e-17 0.7071067811865476
vn 0.555570248949409 6.215865303188339e-17 0.8314696016585884
vn 0.3826834370613369 8.267777660990017e-17 0.9238795305660377
vn 0.19509032931342324 9.531339099045763e-17 0.9807852789517083
vn 1.8369701465288538e-16 9.957991966651452e-17 1
vn -0.19509032931342324 9.531339099045763e-17 0.9807852789517083
vn -0.3826834370613369 8.267777660990017e-17 0.9238795305660377
vn -0.555570248949409 6.215865303188339e-17 0.8314696016585884
vn -0.7071067811865476 3.454455851396687e-17 0.7071067811865476
vn -0.8314696016585884 8.966902605017834e-19 0.555570248949409
vn -0.9238795305660377 -3.74918961593214e-17 0.3826834370613369
vn -0.9807852789517083 -7.914593369356774e-17 0.19509032931342324
vn -1 -1.2246468525851674e-16 2.449293705170336e-16
vn -0.8090170011595983 0.5877852429542022 -1.3051454205252937e-16
vn -0.7934719534792954 0.5877852595947886 -0.15783138992240334
vn -0.747434252631547 0.5877852394037334 -0.30959740039641265
vn -0.6726730524540276 0.5877852491130183 -0.44946575556690377
vn -0.5720614113691512 0.5877852356470594 -0.5720614113691513
vn -0.44946575556690366 0.5877852491130183 -0.6726730524540278
vn -0.30959740039641254 0.5877852394037334 -0.7474342526315471
vn -0.1578313899224032 0.5877852595947883 -0.7934719534792956
vn -4.953800384026539e-17 0.587785242954202 -0.8090170011595984
vn 0.1578313899224032 0.5877852595947883 -0.7934719534792956
vn 0.30959740039641254 0.5877852394037334 -0.7474342526315471
vn 0.44946575556690366 0.5877852491130183 -0.6726730524540278
vn 0.5720614113691512 0.5877852356470594 -0.5720614113691513
vn 0.6726730524540276 0.5877852491130183 -0.44946575556690377
vn 0.747434252631547 0.5877852394037334 -0.30959740039641265
vn 0.7934719534792954 0.5877852595947886 -0.15783138992240334
vn 0.8090170011595983 0.5877852429542022 -2.2959054973306017e-16
vn 0.7934719534792954 0.5877852595947886 0.15783138992240306
vn 0.747434252631547 0.5877852394037336 0.3095974003964124
vn 0.6726730524540276 0.5877852491130185 0.44946575556690355
vn 0.5720614113691512 0.5877852356470596 0.5720614113691511
vn 0.44946575556690366 0.5877852491130185 0.6726730524540275
vn 0.30959740039641254 0.5877852394037336 0.7474342526315468
vn 0.1578313899224032 0.5877852595947888 0.7934719534792953
vn 1.4861400821207373e-16 0.5877852429542024 0.8090170011595982
vn -0.1578313899224032 0.5877852595947888 0.7934719534792953
vn -0.30959740039641254 0.5877852394037336 0.7474342526315468
vn -0.44946575556690366 0.5877852491130185 0.6726730524540275
vn -0.5720614113691512 0.5877852356470596 0.5720614113691511
vn -0.6726730524540276 0.5877852491130185 0.44946575556690355
vn -0.747434252631547 0.5877852394037336 0.3095974003964124
vn -0.7934719534792954 0.5877852595947886 0.15783138992240306
vn -0.8090170011595983 0.5877852429542022 6.763747330853221e-17
vn -0.3090169948284817 0.9510565161477913 -2.1117696838941298e-16
vn -0.30307930140102135 0.9510565221939922 -0.060286222758914536
vn -0.28549447015620777 0.9510565186903915 -0.11825567963839764
vn -0.25693824249922403 0.9510565164207371 -0.17168063989589044
vn -0.21850800088974703 0.9510565215034975 -0.21850800088974726
vn -0.17168063989589022 0.951056516420737 -0.25693824249922426
vn -0.11825567963839743 0.9510565186903914 -0.285494470156208
vn -0.06028622275891433 0.9510565221939921 -0.3030793014010216
vn -1.892183379232834e-17 0.9510565161477912 -0.30901699482848194
vn 0.06028622275891433 0.9510565221939921 -0.3030793014010216
vn 0.11825567963839743 0.9510565186903914 -0.285494470156208
vn 0.17168063989589022 0.951056516420737 -0.25693824249922426
vn 0.21850800088974703 0.9510565215034975 -0.21850800088974726
vn 0.25693824249922403 0.9510565164207371 -0.17168063989589044
vn 0.28549447015620777 0.9510565186903915 -0.11825567963839764
vn 0.30307930140102135 0.9510565221939922 -0.060286222758914536
vn 0.3090169948284817 0.9510565161477913 -2.4902063597406965e-16
vn 0.30307930140102135 0.9510565221939922 0.06028622275891412
vn 0.28549447015620777 0.9510565186903915 0.11825567963839723
vn 0.25693824249922403 0.9510565164207371 0.17168063989589
vn 0.21850800088974703 0.9510565215034975 0.2185080008897468
vn 0.17168063989589016 0.951056516420737 0.25693824249922376
vn 0.11825567963839743 0.9510565186903917 0.28549447015620755
vn 0.06028622275891433 0.9510565221939923 0.30307930140102113
vn 5.676549972262383e-17 0.9510565161477914 0.3090169948284815
vn -0.06028622275891433 0.9510565221939923 0.30307930140102113
vn -0.11825567963839743 0.9510565186903917 0.28549447015620755
vn -0.17168063989589016 0.951056516420737 0.25693824249922376
vn -0.21850800088974703 0.9510565215034975 0.2185080008897468
vn -0.25693824249922403 0.9510565164207371 0.17168063989589
vn -0.28549447015620777 0.9510565186903915 0.11825567963839723
vn -0.30307930140102135 0.9510565221939922 0.06028622275891412
vn -0.3090169948284817 0.9510565161477913 -1.3548963322009962e-16
vn 0.3090169948284817 0.9510565161477913 -2.1117696838941298e-16
vn 0.30307930140102135 0.9510565221939922 0.06028622275891412
vn 0.28549447015620777 0.9510565186903915 0.11825567963839723
vn 0.25693824249922403 0.9510565164207371 0.17168063989589
vn 0.21850800088974703 0.9510565215034975 0.2185080008897468
vn 0.17168063989589016 0.951056516420737 0.25693824249922376
vn 0.11825567963839743 0.9510565186903917 0.28549447015620755
vn 0.06028622275891433 0.9510565221939923 0.30307930140102113
vn 1.892183379232834e-17 0.9510565161477914 0.3090169948284815
vn -0.06028622275891433 0.9510565221939923 0.30307930140102113
vn -0.11825567963839743 0.9510565186903917 0.28549447015620755
vn -0.17168063989589016 0.951056516420737 0.25693824249922376
vn -0.21850800088974703 0.9510565215034975 0.2185080008897468
vn -0.25693824249922403 0.9510565164207371 0.17168063989589
vn -0.28549447015620777 0.9510565186903915 0.11825567963839723
vn -0.30307930140102135 0.9510565221939922 0.06028622275891412
vn -0.3090169948284817 0.9510565161477913 -1.733333008047563e-16
vn -0.30307930140102135 0.9510565221939922 -0.060286222758914536
vn -0.28549447015620777 0.9510565186903915 -0.11825567963839764
vn -0.25693824249922403 0.9510565164207371 -0.17168063989589044
vn -0.21850800088974703 0.9510565215034975 -0.21850800088974726
vn -0.17168063989589022 0.951056516420737 -0.25693824249922426
vn -0.11825567963839743 0.9510565186903914 -0.285494470156208
vn -0.06028622275891433 0.9510565221939921 -0.3030793014010216
vn -5.676549972262383e-17 0.9510565161477912 -0.30901699482848194
vn 0.06028622275891433 0.9510565221939921 -0.3030793014010216
vn 0.11825567963839743 0.9510565186903914 -0.285494470156208
vn 0.17168063989589022 0.951056516420737 -0.25693824249922426
vn 0.21850800088974703 0.9510565215034975 -0.21850800088974726
vn 0.25693824249922403 0.9510565164207371 -0.17168063989589044
vn 0.28549447015620777 0.9510565186903915 -0.11825567963839764
vn 0.30307930140102135 0.9510565221939922 -0.060286222758914536
vn 0.3090169948284817 0.9510565161477913 -2.8686430355872633e-16
vn 0.8090170011595983 0.5877852429542022 -1.3051454205252937e-16
vn 0.7934719534792954 0.5877852595947886 0.15783138992240306
vn 0.747434252631547 0.5877852394037336 0.3095974003964124
vn 0.6726730524540276 0.5877852491130185 0.44946575556690355
vn 0.5720614113691512 0.5877852356470596 0.5720614113691511
vn 0.44946575556690366 0.5877852491130185 0.6726730524540275
vn 0.30959740039641254 0.5877852394037336 0.7474342526315468
vn 0.1578313899224032 0.5877852595947888 0.7934719534792953
vn 4.953800384026539e-17 0.5877852429542024 0.8090170011595982
vn -0.1578313899224032 0.5877852595947888 0.7934719534792953
vn -0.30959740039641254 0.5877852394037336 0.7474342526315468
vn -0.44946575556690366 0.5877852491130185 0.6726730524540275
vn -0.5720614113691512 0.5877852356470596 0.5720614113691511
vn -0.6726730524540276 0.5877852491130185 0.44946575556690355
vn -0.747434252631547 0.5877852394037336 0.3095974003964124
vn -0.7934719534792954 0.5877852595947886 0.15783138992240306
vn -0.8090170011595983 0.5877852429542022 -3.1438534371998573e-17
vn -0.7934719534792954 0.5877852595947886 -0.15783138992240334
vn -0.747434252631547 0.5877852394037334 -0.30959740039641265
vn -0.6726730524540276 0.5877852491130183 -0.44946575556690377
vn -0.5720614113691512 0.5877852356470594 -0.5720614113691513
vn -0.44946575556690366 0.5877852491130183 -0.6726730524540278
vn -0.30959740039641254 0.5877852394037334 -0.7474342526315471
vn -0.1578313899224032 0.5877852595947883 -0.7934719534792956
vn -1.4861400821207373e-16 0.587785242954202 -0.8090170011595984
vn 0.1578313899224032 0.5877852595947883 -0.7934719534792956
vn 0.30959740039641254 0.5877852394037334 -0.7474342526315471
vn 0.44946575556690366 0.5877852491130183 -0.6726730524540278
vn 0.5720614113691512 0.5877852356470594 -0.5720614113691513
vn 0.6726730524540276 0.5877852491130183 -0.44946575556690377
vn 0.747434252631547 0.5877852394037334 -0.30959740039641265
vn 0.7934719534792954 0.5877852595947886 -0.15783138992240334
vn 0.8090170011595983 0.5877852429542022 -3.2866655741359094e-16
vn 1 2.4492937051703357e-16 -5.438524531099133e-32
vn 0.9807852789517083 2.8824813267841543e-16 0.19509032931342324
vn 0.9238795305660377 3.2990217009955573e-16 0.3826834370613369
vn 0.8314696016585884 3.6829074878721484e-16 0.555570248949409
vn 0.7071067811865476 4.0193862057719876e-16 0.7071067811865476
vn 0.555570248949409 4.295527115585964e-16 0.8314696016585884
vn 0.3826834370613369 4.500718428687773e-16 0.9238795305660377
vn 0.19509032931342324 4.627074573624408e-16 0.9807852789517083
vn 6.123234262925839e-17 4.669739754420649e-16 1
vn -0.19509032931342324 4.627074573624408e-16 0.9807852789517083
vn -0.3826834370613369 4.500718428687773e-16 0.9238795305660377
vn -0.555570248949409 4.295527115585964e-16 0.8314696016585884
vn -0.7071067811865476 4.0193862057719876e-16 0.7071067811865476
vn -0.8314696016585884 3.6829074878721484e-16 0.555570248949409
vn -0.9238795305660377 3.2990217009955573e-16 0.3826834370613369
vn -0.9807852789517083 2.8824813267841543e-16 0.19509032931342324
vn -1 2.449293705170336e-16 1.2246468525851674e-16
vn -0.9807852789517083 2.0161062248422882e-16 -0.19509032931342324
vn -0.9238795305660377 1.5995658491228043e-16 -0.3826834370613369
vn -0.8314696016585884 1.2156799591506922e-16 -0.555570248949409
vn -0.7071067811865476 8.792012884044377e-17 -0.7071067811865476
vn -0.555570248949409 6.030603314368762e-17 -0.8314696016585884
vn -0.3826834370613369 3.9786912143058864e-17 -0.9238795305660377
vn -0.19509032931342324 2.7151297800203435e-17 -0.9807852789517083
vn -1.8369701465288538e-16 2.2884765592002263e-17 -1
vn 0.19509032931342324 2.7151297800203435e-17 -0.9807852789517083
vn 0.3826834370613369 3.9786912143058864e-17 -0.9238795305660377
vn 0.555570248949409 6.030603314368762e-17 -0.8314696016585884
vn 0.7071067811865476 8.792012884044377e-17 -0.7071067811865476
vn 0.8314696016585884 1.2156799591506922e-16 -0.555570248949409
vn 0.9238795305660377 1.5995658491228043e-16 -0.3826834370613369
vn 0.9807852789517083 2.0161062248422882e-16 -0.19509032931342324
vn 1 2.449293705170335e-16 -2.449293705170336e-16
f 84/84/84 51/51/51 85/85/85
f 51/51/51 52/52/52 85/85/85
f 85/85/85 52/52/52 86/86/86
f 52/52/52 53/53/53 86/86/86
f 86/86/86 53/53/53 87/87/87
f 53/53/53 54/54/54 87/87/87
f 87/87/87 54/54/54 88/88/88
f 54/54/54 55/55/55 88/88/88
f 88/88/88 55/55/55 89/89/89
f 55/55/55 56/56/56 89/89/89
f 89/89/89 56/56/56 90/90/90
f 56/56/56 57/57/57 90/90/90
f 90/90/90 57/57/57 91/91/91
f 57/57/57 58/58/58 91/91/91
f 91/91/91 58/58/58 92/92/92
f 58/58/58 59/59/59 92/92/92
f 92/92/92 59/59/59 93/93/93
f 59/59/59 60/60/60 93/93/93
f 93/93/93 60/60/60 94/94/94
f 60/60/60 61/61/61 94/94/94
f 94/94/94 61/61/61 95/95/95
f 61/61/61 62/62/62 95/95/95
f 95/95/95 62/62/62 96/96/96
f 62/62/62 63/63/63 96/96/96
f 96/96/96 63/63/63 97/97/97
f 63/63/63 64/64/64 97/97/97
f 97/97/97 64/64/64 98/98/98
f 64/64/64 65/65/65 98/98/98
f 98/98/98 65/65/65 99/99/99
f 65/65/65 66/66/66 99/99/99
f 99/99/99 66/66/66 100/100/100
f 66/66/66 67/67/67 100/100/100
f 100/100/100 67/67/67 101/101/101
f 67/67/67 68/68/68 101/101/101
f 101/101/101 68/68/68 102/102/102
f 68/68/68 69/69/69 102/102/102
f 102/102/102 69/69/69 103/103/103
f 69/69/69 70/70/70 103/103/103
f 103/103/103 70/70/70 104/104/104
f 70/70/70 71/71/71 104/104/104
f 104/104/104 71/71/71 105/105/105
f 71/71/71 72/72/72 105/105/105
f 105/105/105 72/72/72 106/106/106
f 72/72/72 73/73/73 106/106/106
f 106/106/106 73/73/73 107/107/107
f 73/73/73 74/74/74 107/107/107
f 107/107/107 74/74/74 108/108/108
f 74/74/74 75/75/75 108/108/108
f 108/108/108 75/75/75 109/109/109
f 75/75/75 76/76/76 109/109/109
f 109/109/109 76/76/76 110/110/110
f 76/76/76 77/77/77 110/110/110
f 110/110/110 77/77/77 111/111/111
f 77/77/77 78/78/78 111/111/111
f 111/111/111 78/78/78 112/112/112
f 78/78/78 79/79/79 112/112/112
f 112/112/112 79/79/79 113/113/113
f 79/79/79 80/80/80 113/113/113
f 113/113/113 80/80/80 114/114/114
f 80/80/80 81/81/81 114/114/114
f 114/114/114 81/81/81 115/115/115
f 81/81/81 82/82/82 115/115/115
f 115/115/115 82/82/82 116/116/116
f 82/82/82 83/83/83 116/116/116
f 117/117/117 84/84/84 118/118/118
f 84/84/84 85/85/85 118/118/118
f 118/118/118 85/85/85 119/119/119
f 85/85/85 86/86/86 119/119/119
f 119/119/119 86/86/86 120/120/120
f 86/86/86 87/87/87 120/120/120
f 120/120/120 87/87/87 121/121/121
f 87/87/87 88/88/88 121/121/121
f 121/121/121 88/88/88 122/122/122
f 88/88/88 89/89/89 122/122/122
f 122/122/122 89/89/89 123/123/123
f 89/89/89 90/90/90 123/123/123
f 123/123/123 90/90/90 124/124/124
f 90/90/90 91/91/91 124/124/124
f 124/124/124 91/91/91 125/125/125
f 91/91/91 92/92/92 125/125/125
f 125/125/125 92/92/92 126/126/126
f 92/92/92 93/93/93 126/126/126
f 126/126/126 93/93/93 127/127/127
f 93/93/93 94/94/94 127/127/127
f 127/127/127 94/94/94 128/128/128
f 94/94/94 95/95/95 128/128/128
f 128/128/128 95/95/95 129/129/129
f 95/95/95 96/96/96 129/129/129
f 129/129/129 96/96/96 130/130/130
f 96/96/96 97/97/97 130/130/130
f 130/130/130 97/97/97 131/131/131
f 97/97/97 98/98/98 131/131/131
f 131/131/131 98/98/98 132/132/132
f 98/98/98 99/99/99 132/132/132
f 132/132/132 99/99/99 133/133/133
f 99/99/99 100/100/100 133/133/133
f 133/133/133 100/100/100 134/134/134
f 100/100/100 101/101/101 134/134/134
f 134/134/134 101/101/101 135/135/135
f 101/101/101 102/102/102 135/135/135
f 135/135/135 102/102/102 136/136/136
f 102/102/102 103/103/103 136/136/136
f 136/136/136 103/103/103 137/137/137
f 103/103/103 104/104/104 137/137/137
f 137/137/137 104/104/104 138/138/138
f 104/104/104 105/105/105 138/138/138
f 138/138/138 105/105/105 139/139/139
f 105/105/105 106/106/106 139/139/139
f 139/139/139 106/106/106 140/140/140
f 106/106/106 107/107/107 140/140/140
f 140/140/140 107/107/107 141/141/141
f 107/107/107 108/108/108 141/141/141
f 141/141/141 108/108/108 142/142/142
f 108/108/108 109/109/109 142/142/142
f 142/142/142 109/109/109 143/143/143
f 109/109/109 110/110/110 143/143/143
f 143/143/143 110/110/110 144/144/144
f 110/110/110 111/111/111 144/144/144
f 144/144/144 111/111/111 145/145/145
f 111/111/111 112/112/112 145/145/145
f 145/145/145 112/112/112 146/146/146
f 112/112/112 113/113/113 146/146/146
f 146/146/146 113/113/113 147/147/147
f 113/113/113 114/114/114 147/147/147
f 147/147/147 114/114/114 148/148/148
f 114/114/114 115/115/115 148/148/148
f 148/148/148 115/115/115 149/149/149
f 115/115/115 116/116/116 149/149/149
f 150/150/150 117/117/117 151/151/151
f 117/117/117 118/118/118 151/151/151
f 151/151/151 118/118/118 152/152/152
f 118/118/118 119/119/119 152/152/152
f 152/152/152 119/119/119 153/153/153
f 119/119/119 120/120/120 153/153/153
f 153/153/153 120/120/120 154/154/154
f 120/120/120 121/121/121 154/154/154
f 154/154/154 121/121/121 155/155/155
f 121/121/121 122/122/122 155/155/155
f 155/155/155 122/122/122 156/156/156
f 122/122/122 123/123/123 156/156/156
f 156/156/156 123/123/123 157/157/157
f 123/123/123 124/124/124 157/157/157
f 157/157/157 124/124/124 158/158/158
f 124/124/124 125/125/125 158/158/158
f 158/158/158 125/125/125 159/159/159
f 125/125/125 126/126/126 159/159/159
f 159/159/159 126/126/126 160/160/160
f 126/126/126 127/127/127 160/160/160
f 160/160/160 127/127/127 161/161/161
f 127/127/127 128/128/128 161/161/161
f 161/161/161 128/128/128 162/162/162
f 128/128/128 129/129/129 162/162/162
f 162/162/162 129/129/129 163/163/163
f 129/129/129 130/130/130 163/163/163
f 163/163/163 130/130/130 164/164/164
f 130/130/130 131/131/131 164/164/164
f 164/164/164 131/131/131 165/165/165
f 131/131/131 132/132/132 165/165/165
f 165/165/165 132/132/132 166/166/166
f 132/132/132 133/133/133 166/166/166
f 166/166/166 133/133/133 167/167/167
f 133/133/133 134/134/134 167/167/167
f 167/167/167 134/134/134 168/168/168
f 134/134/134 135/135/135 168/168/168
f 168/168/168 135/135/135 169/169/169
f 135/135/135 136/136/136 169/169/169
f 169/169/169 136/136/136 170/170/170
f 136/136/136 137/137/137 170/170/170
f 170/170/170 137/137/137 171/171/171
f 137/137/137 138/138/138 171/171/171
f 171/171/171 138/138/138 172/172/172
f 138/138/138 139/139/139 172/172/172
f 172/172/172 139/139/139 173/173/173
f 139/139/139 140/140/140 173/173/173
f 173/173/173 140/140/140 174/174/174
f 140/140/140 141/141/141 174/174/174
f 174/174/174 141/141/141 175/175/175
f 141/141/141 142/142/142 175/175/175
f 175/175/175 142/142/142 176/176/176
f 142/142/142 143/143/143 176/176/176
f 176/176/176 143/143/143 177/177/177
f 143/143/143 144/144/144 177/177/177
f 177/177/177 144/144/144 178/178/178
f 144/144/144 145/145/145 178/178/178
f 178/178/178 145/145/145 179/179/179
f 145/145/145 146/146/146 179/179/179
f 179/179/179 146/146/146 180/180/180
f 146/146/146 147/147/147 180/180/180
f 180/180/180 147/147/147 181/181/181
f 147/147/147 148/148/148 181/181/181
f 181/181/181 148/148/148 182/182/182
f 148/148/148 149/149/149 182/182/182
f 183/183/183 150/150/150 184/184/184
f 150/150/150 151/151/151 184/184/184
f 184/184/184 151/151/151 185/185/185
f 151/151/151 152/152/152 185/185/185
f 185/185/185 152/152/152 186/186/186
f 152/152/152 153/153/153 186/186/186
f 186/186/186 153/153/153 187/187/187
f 153/153/153 154/154/154 187/187/187
f 187/187/187 154/154/154 188/188/188
f 154/154/154 155/155/155 188/188/188
f 188/188/188 155/155/155 189/189/189
f 155/155/155 156/156/156 189/189/189
f 189/189/189 156/156/156 190/190/190
f 156/156/156 157/157/157 190/190/190
f 190/190/190 157/157/157 191/191/191
f 157/157/157 158/158/158 191/191/191
f 191/191/191 158/158/158 192/192/192
f 158/158/158 159/159/159 192/192/192
f 192/192/192 159/159/159 193/193/193
f 159/159/159 160/160/160 193/193/193
f 193/193/193 160/160/160 194/194/194
f 160/160/160 161/161/161 194/194/194
f 194/194/194 161/161/161 195/195/195
f 161/161/161 162/162/162 195/195/195
f 195/195/195 162/162/162 196/196/196
f 162/162/162 163/163/163 196/196/196
f 196/196/196 163/163/163 197/197/197
f 163/163/163 164/164/164 197/197/197
f 197/197/197 164/164/164 198/198/198
f 164/164/164 165/165/165 198/198/198
f 198/198/198 165/165/165 199/199/199
f 165/165/165 166/166/166 199/199/199
f 199/199/199 166/166/166 200/200/200
f 166/166/166 167/167/167 200/200/200
f 200/200/200 167/167/167 201/201/201
f 167/167/167 168/168/168 201/201/201
f 201/201/201 168/168/168 202/202/202
f 168/168/168 169/169/169 202/202/202
f 202/202/202 169/169/169 203/203/203
f 169/169/169 170/170/170 203/203/203
f 203/203/203 170/170/170 204/204/204
f 170/170/170 171/171/171 204/204/204
f 204/204/204 171/171/171 205/205/205
f 171/171/171 172/172/172 205/205/205
f 205/205/205 172/172/172 206/206/206
f 172/172/172 173/173/173 206/206/206
f 206/206/206 173/173/173 207/207/207
f 173/173/173 174/174/174 207/207/207
f 207/207/207 174/174/174 208/208/208
f 174/174/174 175/175/175 208/208/208
f 208/208/208 175/175/175 209/209/209
f 175/175/175 176/176/176 209/209/209
f 209/209/209 176/176/176 210/210/210
f 176/176/176 177/177/177 210/210/210
f 210/210/210 177/177/177 211/211/211
f 177/177/177 178/178/178 211/211/211
f 211/211/211 178/178/178 212/212/212
f 178/178/178 179/179/179 212/212/212
f 212/212/212 179/179/179 213/213/213
f 179/179/179 180/180/180 213/213/213
f 213/213/213 180/180/180 214/214/214
f 180/180/180 181/181/181 214/214/214
f 214/214/214 181/181/181 215/215/215
f 181/181/181 182/182/182 215/215/215
f 216/216/216 183/183/183 217/217/217
f 183/183/183 184/184/184 217/217/217
f 217/217/217 184/184/184 218/218/218
f 184/184/184 185/185/185 218/218/218
f 218/218/218 185/185/185 219/219/219
f 185/185/185 186/186/186 219/219/219
f 219/219/219 186/186/186 220/220/220
f 186/186/186 187/187/187 220/220/220
f 220/220/220 187/187/187 221/221/221
f 187/187/187 188/188/188 221/221/221
f 221/221/221 188/188/188 222/222/222
f 188/188/188 189/189/189 222/222/222
f 222/222/222 189/189/189 223/223/223
f 189/189/189 190/190/190 223/223/223
f 223/223/223 190/190/190 224/224/224
f 190/190/190 191/191/191 224/224/224
f 224/224/224 191/191/191 225/225/225
f 191/191/191 192/192/192 225/225/225
f 225/225/225 192/192/192 226/226/226
f 192/192/192 193/193/193 226/226/226
f 226/226/226 193/193/193 227/227/227
f 193/193/193 194/194/194 227/227/227
f 227/227/227 194/194/194 228/228/228
f 194/194/194 195/195/195 228/228/228
f 228/228/228 195/195/195 229/229/229
f 195/195/195 196/196/196 229/229/229
f 229/229/229 196/196/196 230/230/230
f 196/196/196 197/197/197 230/230/230
f 230/230/230 197/197/197 231/231/231
f 197/197/197 198/198/198 231/231/231
f 231/231/231 198/198/198 232/232/232
f 198/198/198 199/199/199 232/232/232
f 232/232/232 199/199/199 233/233/233
f 199/199/199 200/200/200 233/233/233
f 233/233/233 200/200/200 234/234/234
f 200/200/200 201/201/201 234/234/234
f 234/234/234 201/201/201 235/235/235
f 201/201/201 202/202/202 235/235/235
f 235/235/235 202/202/202 236/236/236
f 202/202/202 203/203/203 236/236/236
f 236/236/236 203/203/203 237/237/237
f 203/203/203 204/204/204 237/237/237
f 237/237/237 204/204/204 238/238/238
f 204/204/204 205/205/205 238/238/238
f 238/238/238 205/205/205 239/239/239
f 205/205/205 206/206/206 239/239/239
f 239/239/239 206/206/206 240/240/240
f 206/206/206 207/207/207 240/240/240
f 240/240/240 207/207/207 241/241/241
f 207/207/207 208/208/208 241/241/241
f 241/241/241 208/208/208 242/242/242
f 208/208/208 209/209/209 242/242/242
f 242/242/242 209/209/209 243/243/243
f 209/209/209 210/210/210 243/243/243
f 243/243/243 210/210/210 244/244/244
f 210/210/210 211/211/211 244/244/244
f 244/244/244 211/211/211 245/245/245
f 211/211/211 212/212/212 245/245/245
f 245/245/245 212/212/212 246/246/246
f 212/212/212 213/213/213 246/246/246
f 246/246/246 213/213/213 247/247/247
f 213/213/213 214/214/214 247/247/247
f 247/247/247 214/214/214 248/248/248
f 214/214/214 215/215/215 248/248/248
f 249/249/249 216/216/216 250/250/250
f 216/216/216 217/217/217 250/250/250
f 250/250/250 217/217/217 251/251/251
f 217/217/217 218/218/218 251/251/251
f 251/251/251 218/218/218 252/252/252
f 218/218/218 219/219/219 252/252/252
f 252/252/252 219/219/219 253/253/253
f 219/219/219 220/220/220 253/253/253
f 253/253/253 220/220/220 254/254/254
f 220/220/220 221/221/221 254/254/254
f 254/254/254 221/221/221 255/255/255
f 221/221/221 222/222/222 255/255/255
f 255/255/255 222/222/222 256/256/256
f 222/222/222 223/223/223 256/256/256
f 256/256/256 223/223/223 257/257/257
f 223/223/223 224/224/224 257/257/257
f 257/257/257 224/224/224 258/258/258
f 224/224/224 225/225/225 258/258/258
f 258/258/258 225/225/225 259/259/259
f 225/225/225 226/226/226 259/259/259
f 259/259/259 226/226/226 260/260/260
f 226/226/226 227/227/227 260/260/260
f 260/260/260 227/227/227 261/261/261
f 227/227/227 228/228/228 261/261/261
f 261/261/261 228/228/228 262/262/262
f 228/228/228 229/229/229 262/262/262
f 262/262/262 229/229/229 263/263/263
f 229/229/229 230/230/230 263/263/263
f 263/263/263 230/230/230 264/264/264
f 230/230/230 231/231/231 264/264/264
f 264/264/264 231/231/231 265/265/265
f 231/231/231 232/232/232 265/265/265
f 265/265/265 232/232/232 266/266/266
f 232/232/232 233/233/233 266/266/266
f 266/266/266 233/233/233 267/267/267
f 233/233/233 234/234/234 267/267/267
f 267/267/267 234/234/234 268/268/268
f 234/234/234 235/235/235 268/268/268
f 268/268/268 235/235/235 269/269/269
f 235/235/235 236/236/236 269/269/269
f 269/269/269 236/236/236 270/270/270
f 236/236/236 237/237/237 270/270/270
f 270/270/270 237/237/237 271/271/271
f 237/237/237 238/238/238 271/271/271
f 271/271/271 238/238/238 272/272/272
f 238/238/238 239/239/239 272/272/272
f 272/272/272 239/239/239 273/273/273
f 239/239/239 240/240/240 273/273/273
f 273/273/273 240/240/240 274/274/274
f 240/240/240 241/241/241 274/274/274
f 274/274/274 241/241/241 275/275/275
f 241/241/241 242/242/242 275/275/275
f 275/275/275 242/242/242 276/276/276
f 242/242/242 243/243/243 276/276/276
f 276/276/276 243/243/243 277/277/277
f 243/243/243 244/244/244 277/277/277
f 277/277/277 244/244/244 278/278/278
f 244/244/244 245/245/245 278/278/278
f 278/278/278 245/245/245 279/279/279
f 245/245/245 246/246/246 279/279/279
f 279/279/279 246/246/246 280/280/280
f 246/246/246 247/247/247 280/280/280
f 280/280/280 247/247/247 281/281/281
f 247/247/247 248/248/248 281/281/281
f 282/282/282 249/249/249 283/283/283
f 249/249/249 250/250/250 283/283/283
f 283/283/283 250/250/250 284/284/284
f 250/250/250 251/251/251 284/284/284
f 284/284/284 251/251/251 285/285/285
f 251/251/251 252/252/252 285/285/285
f 285/285/285 252/252/252 286/286/286
f 252/252/252 253/253/253 286/286/286
f 286/286/286 253/253/253 287/287/287
f 253/253/253 254/254/254 287/287/287
f 287/287/287 254/254/254 288/288/288
f 254/254/254 255/255/255 288/288/288
f 288/288/288 255/255/255 289/289/289
f 255/255/255 256/256/256 289/289/289
f 289/289/289 256/256/256 290/290/290
f 256/256/256 257/257/257 290/290/290
f 290/290/290 257/257/257 291/291/291
f 257/257/257 258/258/258 291/291/291
f 291/291/291 258/258/258 292/292/292
f 258/258/258 259/259/259 292/292/292
f 292/292/292 259/259/259 293/293/293
f 259/259/259 260/260/260 293/293/293
f 293/293/293 260/260/260 294/294/294
f 260/260/260 261/261/261 294/294/294
f 294/294/294 261/261/261 295/295/295
f 261/261/261 262/262/262 295/295/295
f 295/295/295 262/262/262 296/296/296
f 262/262/262 263/263/263 296/296/296
f 296/296/296 263/263/263 297/297/297
f 263/263/263 264/264/264 297/297/297
f 297/297/297 264/264/264 298/298/298
f 264/264/264 265/265/265 298/298/298
f 298/298/298 265/265/265 299/299/299
f 265/265/265 266/266/266 299/299/299
f 299/299/299 266/266/266 300/300/300
f 266/266/266 267/267/267 300/300/300
f 300/300/300 267/267/267 301/301/301
f 267/267/267 268/268/268 301/301/301
f 301/301/301 268/268/268 302/302/302
f 268/268/268 269/269/269 302/302/302
f 302/302/302 269/269/269 303/303/303
f 269/269/269 270/270/270 303/303/303
f 303/303/303 270/270/270 304/304/304
f 270/270/270 271/271/271 304/304/304
f 304/304/304 271/271/271 305/305/305
f 271/271/271 272/272/272 305/305/305
f 305/305/305 272/272/272 306/306/306
f 272/272/272 273/273/273 306/306/306
f 306/306/306 273/273/273 307/307/307
f 273/273/273 274/274/274 307/307/307
f 307/307/307 274/274/274 308/308/308
f 274/274/274 275/275/275 308/308/308
f 308/308/308 275/275/275 309/309/309
f 275/275/275 276/276/276 309/309/309
f 309/309/309 276/276/276 310/310/310
f 276/276/276 277/277/277 310/310/310
f 310/310/310 277/277/277 311/311/311
f 277/277/277 278/278/278 311/311/311
f 311/311/311 278/278/278 312/312/312
f 278/278/278 279/279/279 312/312/312
f 312/312/312 279/279/279 313/313/313
f 279/279/279 280/280/280 313/313/313
f 313/313/313 280/280/280 314/314/314
f 280/280/280 281/281/281 314/314/314
f 315/315/315 282/282/282 316/316/316
f 282/282/282 283/283/283 316/316/316
f 316/316/316 283/283/283 317/317/317
f 283/283/283 284/284/284 317/317/317
f 317/317/317 284/284/284 318/318/318
f 284/284/284 285/285/285 318/318/318
f 318/318/318 285/285/285 319/319/319
f 285/285/285 286/286/286 319/319/319
f 319/319/319 286/286/286 320/320/320
f 286/286/286 287/287/287 320/320/320
f 320/320/320 287/287/287 321/321/321
f 287/287/287 288/288/288 321/321/321
f 321/321/321 288/288/288 322/322/322
f 288/288/288 289/289/289 322/322/322
f 322/322/322 289/289/289 323/323/323
f 289/289/289 290/290/290 323/323/323
f 323/323/323 290/290/290 324/324/324
f 290/290/290 291/291/291 324/324/324
f 324/324/324 291/291/291 325/325/325
f 291/291/291 292/292/292 325/325/325
f 325/325/325 292/292/292 326/326/326
f 292/292/292 293/293/293 326/326/326
f 326/326/326 293/293/293 327/327/327
f 293/293/293 294/294/294 327/327/327
f 327/327/327 294/294/294 328/328/328
f 294/294/294 295/295/295 328/328/328
f 328/328/328 295/295/295 329/329/329
f 295/295/295 296/296/296 329/329/329
f 329/329/329 296/296/296 330/330/330
f 296/296/296 297/297/297 330/330/330
f 330/330/330 297/297/297 331/331/331
f 297/297/297 298/298/298 331/331/331
f 331/331/331 298/298/298 332/332/332
f 298/298/298 299/299/299 332/332/332
f 332/332/332 299/299/299 333/333/333
f 299/299/299 300/300/300 333/333/333
f 333/333/333 300/300/300 334/334/334
f 300/300/300 301/301/301 334/334/334
f 334/334/334 301/301/301 335/335/335
f 301/301/301 302/302/302 335/335/335
f 335/335/335 302/302/302 336/336/336
f 302/302/302 303/303/303 336/336/336
f 336/336/336 303/303/303 337/337/337
f 303/303/303 304/304/304 337/337/337
f 337/337/337 304/304/304 338/338/338
f 304/304/304 305/305/305 338/338/338
f 338/338/338 305/305/305 339/339/339
f 305/305/305 306/306/306 339/339/339
f 339/339/339 306/306/306 340/340/340
f 306/306/306 307/307/307 340/340/340
f 340/340/340 307/307/307 341/341/341
f 307/307/307 308/308/308 341/341/341
f 341/341/341 308/308/308 342/342/342
f 308/308/308 309/309/309 342/342/342
f 342/342/342 309/309/309 343/343/343
f 309/309/309 310/310/310 343/343/343
f 343/343/343 310/310/310 344/344/344
f 310/310/310 311/311/311 344/344/344
f 344/344/344 311/311/311 345/345/345
f 311/311/311 312/312/312 345/345/345
f 345/345/345 312/312/312 346/346/346
f 312/312/312 313/313/313 346/346/346
f 346/346/346 313/313/313 347/347/347
f 313/313/313 314/314/314 347/347/347
f 348/348/348 315/315/315 349/349/349
f 315/315/315 316/316/316 349/349/349
f 349/349/349 316/316/316 350/350/350
f 316/316/316 317/317/317 350/350/350
f 350/350/350 317/317/317 351/351/351
f 317/317/317 318/318/318 351/351/351
f 351/351/351 318/318/318 352/352/352
f 318/318/318 319/319/319 352/352/352
f 352/352/352 319/319/319 353/353/353
f 319/319/319 320/320/320 353/353/353
f 353/353/353 320/320/320 354/354/354
f 320/320/320 321/321/321 354/354/354
f 354/354/354 321/321/321 355/355/355
f 321/321/321 322/322/322 355/355/355
f 355/355/355 322/322/322 356/356/356
f 322/322/322 323/323/323 356/356/356
f 356/356/356 323/323/323 357/357/357
f 323/323/323 324/324/324 357/357/357
f 357/357/357 324/324/324 358/358/358
f 324/324/324 325/325/325 358/358/358
f 358/358/358 325/325/325 359/359/359
f 325/325/325 326/326/326 359/359/359
f 359/359/359 326/326/326 360/360/360
f 326/326/326 327/327/327 360/360/360
f 360/360/360 327/327/327 361/361/361
f 327/327/327 328/328/328 361/361/361
f 361/361/361 328/328/328 362/362/362
f 328/328/328 329/329/329 362/362/362
f 362/362/362 329/329/329 363/363/363
f 329/329/329 330/330/330 363/363/363
f 363/363/363 330/330/330 364/364/364
f 330/330/330 331/331/331 364/364/364
f 364/364/364 331/331/331 365/365/365
f 331/331/331 332/332/332 365/365/365
f 365/365/365 332/332/332 366/366/366
f 332/332/332 333/333/333 366/366/366
f 366/366/366 333/333/333 367/367/367
f 333/333/333 334/334/334 367/367/367
f 367/367/367 334/334/334 368/368/368
f 334/334/334 335/335/335 368/368/368
f 368/368/368 335/335/335 369/369/369
f 335/335/335 336/336/336 369/369/369
f 369/369/369 336/336/336 370/370/370
f 336/336/336 337/337/337 370/370/370
f 370/370/370 337/337/337 371/371/371
f 337/337/337 338/338/338 371/371/371
f 371/371/371 338/338/338 372/372/372
f 338/338/338 339/339/339 372/372/372
f 372/372/372 339/339/339 373/373/373
f 339/339/339 340/340/340 373/373/373
f 373/373/373 340/340/340 374/374/374
f 340/340/340 341/341/341 374/374/374
f 374/374/374 341/341/341 375/375/375
f 341/341/341 342/342/342 375/375/375
f 375/375/375 342/342/342 376/376/376
f 342/342/342 343/343/343 376/376/376
f 376/376/376 343/343/343 377/377/377
f 343/343/343 344/344/344 377/377/377
f 377/377/377 344/344/344 378/378/378
f 344/344/344 345/345/345 378/378/378
f 378/378/378 345/345/345 379/379/379
f 345/345/345 346/346/346 379/379/379
f 379/379/379 346/346/346 380/380/380
f 346/346/346 347/347/347 380/380/380
f 381/381/381 348/348/348 382/382/382
f 348/348/348 349/349/349 382/382/382
f 382/382/382 349/349/349 383/383/383
f 349/349/349 350/350/350 383/383/383
f 383/383/383 350/350/350 384/384/384
f 350/350/350 351/351/351 384/384/384
f 384/384/384 351/351/351 385/385/385
f 351/351/351 352/352/352 385/385/385
f 385/385/385 352/352/352 386/386/386
f 352/352/352 353/353/353 386/386/386
f 386/386/386 353/353/353 387/387/387
f 353/353/353 354/354/354 387/387/387
f 387/387/387 354/354/354 388/388/388
f 354/354/354 355/355/355 388/388/388
f 388/388/388 355/355/355 389/389/389
f 355/355/355 356/356/356 389/389/389
f 389/389/389 356/356/356 390/390/390
f 356/356/356 357/357/357 390/390/390
f 390/390/390 357/357/357 391/391/391
f 357/357/357 358/358/358 391/391/391
f 391/391/391 358/358/358 392/392/392
f 358/358/358 359/359/359 392/392/392
f 392/392/392 359/359/359 393/393/393
f 359/359/359 360/360/360 393/393/393
f 393/393/393 360/360/360 394/394/394
f 360/360/360 361/361/361 394/394/394
f 394/394/394 361/361/361 395/395/395
f 361/361/361 362/362/362 395/395/395
f 395/395/395 362/362/362 396/396/396
f 362/362/362 363/363/363 396/396/396
f 396/396/396 363/363/363 397/397/397
f 363/363/363 364/364/364 397/397/397
f 397/397/397 364/364/364 398/398/398
f 364/364/364 365/365/365 398/398/398
f 398/398/398 365/365/365 399/399/399
f 365/365/365 366/366/366 399/399/399
f 399/399/399 366/366/366 400/400/400
f 366/366/366 367/367/367 400/400/400
f 400/400/400 367/367/367 401/401/401
f 367/367/367 368/368/368 401/401/401
f 401/401/401 368/368/368 402/402/402
f 368/368/368 369/369/369 402/402/402
f 402/402/402 369/369/369 403/403/403
f 369/369/369 370/370/370 403/403/403
f 403/403/403 370/370/370 404/404/404
f 370/370/370 371/371/371 404/404/404
f 404/404/404 371/371/371 405/405/405
f 371/371/371 372/372/372 405/405/405
f 405/405/405 372/372/372 406/406/406
f 372/372/372 373/373/373 406/406/406
f 406/406/406 373/373/373 407/407/407
f 373/373/373 374/374/374 407/407/407
f 407/407/407 374/374/374 408/408/408
f 374/374/374 375/375/375 408/408/408
f 408/408/408 375/375/375 409/409/409
f 375/375/375 376/376/376 409/409/409
f 409/409/409 376/376/376 410/410/410
f 376/376/376 377/377/377 410/410/410
f 410/410/410 377/377/377 411/411/411
f 377/377/377 378/378/378 411/411/411
f 411/411/411 378/378/378 412/412/412
f 378/378/378 379/379/379 412/412/412
f 412/412/412 379/379/379 413/413/413
f 379/379/379 380/380/380 413/413/413
o 
v 0 1 0
v 0.7799999713897705 1 0
v 0.7534221410751343 1 -0.2018788605928421
v 0.6754997968673706 1 -0.38999998569488525
v 0.5515432953834534 1.0000000000000002 -0.5515432953834534
v 0.38999998569488525 1.0000000000000002 -0.6754997968673706
v 0.2018788605928421 1.0000000000000002 -0.7534221410751343
v 4.7761226589077056e-17 1.0000000000000002 -0.7799999713897705
v -0.2018788605928421 1.0000000000000002 -0.7534221410751343
v -0.38999998569488525 1.0000000000000002 -0.6754997968673706
v -0.5515432953834534 1.0000000000000002 -0.5515432953834534
v -0.6754997968673706 1 -0.38999998569488525
v -0.7534221410751343 1 -0.2018788605928421
v -0.7799999713897705 1 -9.552245317815411e-17
v -0.7534221410751343 1 0.2018788605928421
v -0.6754997968673706 0.9999999999999999 0.38999998569488525
v -0.5515432953834534 0.9999999999999999 0.5515432953834534
v -0.38999998569488525 0.9999999999999999 0.6754997968673706
v -0.2018788605928421 0.9999999999999998 0.7534221410751343
v -1.4328366984106382e-16 0.9999999999999998 0.7799999713897705
v 0.2018788605928421 0.9999999999999998 0.7534221410751343
v 0.38999998569488525 0.9999999999999999 0.6754997968673706
v 0.5515432953834534 0.9999999999999999 0.5515432953834534
v 0.6754997968673706 0.9999999999999999 0.38999998569488525
v 0.7534221410751343 1 0.2018788605928421
v 0.7799999713897705 1 1.9104490635630823e-16
vt 0.5 0.5
vt 1 0.5
vt 0.9829629063606262 0.6294095516204834
vt 0.9330127239227295 0.75
vt 0.8535534143447876 0.8535534143447876
vt 0.75 0.9330127239227295
vt 0.6294095516204834 0.9829629063606262
vt 0.5 1
vt 0.370590478181839 0.9829629063606262
vt 0.25 0.9330127239227295
vt 0.1464466154575348 0.8535534143447876
vt 0.0669872984290123 0.75
vt 0.017037086188793182 0.6294095516204834
vt 0 0.5
vt 0.017037086188793182 0.370590478181839
vt 0.0669872984290123 0.25
vt 0.1464466154575348 0.1464466154575348
vt 0.25 0.0669872984290123
vt 0.370590478181839 0.017037086188793182
vt 0.5 0
vt 0.6294095516204834 0.017037086188793182
vt 0.75 0.0669872984290123
vt 0.8535534143447876 0.1464466154575348
vt 0.9330127239227295 0.25
vt 0.9829629063606262 0.370590478181839
vt 1 0.5
vn 0 1 2.220446049250313e-16
vn 0 1 2.220446049250313e-16
vn 0 1 2.220446049250313e-16
vn 0 1 2.220446049250313e-16
vn 0 1 2.220446049250313e-16
vn 0 1 2.220446049250313e-16
vn 0 1 2.220446049250313e-16
vn 0 1 2.220446049250313e-16
vn 0 1 2.220446049250313e-16
vn 0 1 2.220446049250313e-16
vn 0 1 2.220446049250313e-16
vn 0 1 2.220446049250313e-16
vn 0 1 2.220446049250313e-16
vn 0 1 2.220446049250313e-16
vn 0 1 2.220446049250313e-16
vn 0 1 2.220446049250313e-16
vn 0 1 2.220446049250313e-16
vn 0 1 2.220446049250313e-16
vn 0 1 2.220446049250313e-16
vn 0 1 2.220446049250313e-16
vn 0 1 2.220446049250313e-16
vn 0 1 2.220446049250313e-16
vn 0 1 2.220446049250313e-16
vn 0 1 2.220446049250313e-16
vn 0 1 2.220446049250313e-16
vn 0 1 2.220446049250313e-16
f 415/415/415 416/416/416 414/414/414
f 416/416/416 417/417/417 414/414/414
f 417/417/417 418/418/418 414/414/414
f 418/418/418 419/419/419 414/414/414
f 419/419/419 420/420/420 414/414/414
f 420/420/420 421/421/421 414/414/414
f 421/421/421 422/422/422 414/414/414
f 422/422/422 423/423/423 414/414/414
f 423/423/423 424/424/424 414/414/414
f 424/424/424 425/425/425 414/414/414
f 425/425/425 426/426/426 414/414/414
f 426/426/426 427/427/427 414/414/414
f 427/427/427 428/428/428 414/414/414
f 428/428/428 429/429/429 414/414/414
f 429/429/429 430/430/430 414/414/414
f 430/430/430 431/431/431 414/414/414
f 431/431/431 432/432/432 414/414/414
f 432/432/432 433/433/433 414/414/414
f 433/433/433 434/434/434 414/414/414
f 434/434/434 435/435/435 414/414/414
f 435/435/435 436/436/436 414/414/414
f 436/436/436 437/437/437 414/414/414
f 437/437/437 438/438/438 414/414/414
f 438/438/438 439/439/439 414/414/414
