o 
v 1.0499999523162842 1.0500000014901163 0
v 1.0499999523162842 1.0500000014901163 -15
v 1.0499999523162842 0.849999998509884 0
v 1.0499999523162842 0.849999998509884 -15
v -1.0499999523162842 1.0500000014901163 -15
v -1.0499999523162842 1.0500000014901163 0
v -1.0499999523162842 0.849999998509884 -15
v -1.0499999523162842 0.849999998509884 0
v -1.0499999523162842 1.0500000014901163 -15
v 1.0499999523162842 1.0500000014901163 -15
v -1.0499999523162842 1.0500000014901163 0
v 1.0499999523162842 1.0500000014901163 0
v -1.0499999523162842 0.849999998509884 0
v 1.0499999523162842 0.849999998509884 0
v -1.0499999523162842 0.849999998509884 -15
v 1.0499999523162842 0.849999998509884 -15
v -1.0499999523162842 1.0500000014901163 0
v 1.0499999523162842 1.0500000014901163 0
v -1.0499999523162842 0.849999998509884 0
v 1.0499999523162842 0.849999998509884 0
v 1.0499999523162842 1.0500000014901163 -15
v -1.0499999523162842 1.0500000014901163 -15
v 1.0499999523162842 0.849999998509884 -15
v -1.0499999523162842 0.849999998509884 -15
vt 0 1
vt 1 1
vt 0 0
vt 1 0
vt 0 1
vt 1 1
vt 0 0
vt 1 0
vt 0 1
vt 1 1
vt 0 0
vt 1 0
vt 0 1
vt 1 1
vt 0 0
vt 1 0
vt 0 1
vt 1 1
vt 0 0
vt 1 0
vt 0 1
vt 1 1
vt 0 0
vt 1 0
vn 1 0 0
vn 1 0 0
vn 1 0 0
vn 1 0 0
vn -1 0 0
vn -1 0 0
vn -1 0 0
vn -1 0 0
vn 0 1 0
vn 0 1 0
vn 0 1 0
vn 0 1 0
vn 0 -1 0
vn 0 -1 0
vn 0 -1 0
vn 0 -1 0
vn 0 0 1
vn 0 0 1
vn 0 0 1
vn 0 0 1
vn 0 0 -1
vn 0 0 -1
vn 0 0 -1
vn 0 0 -1
f 1/1/1 3/3/3 2/2/2
f 3/3/3 4/4/4 2/2/2
f 5/5/5 7/7/7 6/6/6
f 7/7/7 8/8/8 6/6/6
f 9/9/9 11/11/11 10/10/10
f 11/11/11 12/12/12 10/10/10
f 13/13/13 15/15/15 14/14/14
f 15/15/15 16/16/16 14/14/14
f 17/17/17 19/19/19 18/18/18
f 19/19/19 20/20/20 18/18/18
f 21/21/21 23/23/23 22/22/22
f 23/23/23 24/24/24 22/22/22
o 
v -1.045 1.2249999970197678 0
v -1.045 1.2249999970197678 -15
v -1.045 0.8750000029802323 0
v -1.045 0.8750000029802323 -15
v -1.295 1.2249999970197678 -15
v -1.295 1.2249999970197678 0
v -1.295 0.8750000029802323 -15
v -1.295 0.8750000029802323 0
v -1.295 1.2249999970197678 -15
v -1.045 1.2249999970197678 -15
v -1.295 1.2249999970197678 0
v -1.045 1.2249999970197678 0
v -1.295 0.8750000029802323 0
v -1.045 0.8750000029802323 0
v -1.295 0.8750000029802323 -15
v -1.045 0.8750000029802323 -15
v -1.295 1.2249999970197678 0
v -1.045 1.2249999970197678 0
v -1.295 0.8750000029802323 0
v -1.045 0.8750000029802323 0
v -1.045 1.2249999970197678 -15
v -1.295 1.2249999970197678 -15
v -1.045 0.8750000029802323 -15
v -1.295 0.8750000029802323 -15
vt 0 1
vt 1 1
vt 0 0
vt 1 0
vt 0 1
vt 1 1
vt 0 0
vt 1 0
vt 0 1
vt 1 1
vt 0 0
vt 1 0
vt 0 1
vt 1 1
vt 0 0
vt 1 0
vt 0 1
vt 1 1
vt 0 0
vt 1 0
vt 0 1
vt 1 1
vt 0 0
vt 1 0
vn 1 0 0
vn 1 0 0
vn 1 0 0
vn 1 0 0
vn -1 0 0
vn -1 0 0
vn -1 0 0
vn -1 0 0
vn 0 1 0
vn 0 1 0
vn 0 1 0
vn 0 1 0
vn 0 -1 0
vn 0 -1 0
vn 0 -1 0
vn 0 -1 0
vn 0 0 1
vn 0 0 1
vn 0 0 1
vn 0 0 1
vn 0 0 -1
vn 0 0 -1
vn 0 0 -1
vn 0 0 -1
f 25/25/25 27/27/27 26/26/26
f 27/27/27 28/28/28 26/26/26
f 29/29/29 31/31/31 30/30/30
f 31/31/31 32/32/32 30/30/30
f 33/33/33 35/35/35 34/34/34
f 35/35/35 36/36/36 34/34/34
f 37/37/37 39/39/39 38/38/38
f 39/39/39 40/40/40 38/38/38
f 41/41/41 43/43/43 42/42/42
f 43/43/43 44/44/44 42/42/42
f 45/45/45 47/47/47 46/46/46
f 47/47/47 48/48/48 46/46/46
o 
v 1.295 1.2249999970197678 0
v 1.295 1.2249999970197678 -15
v 1.295 0.8750000029802323 0
v 1.295 0.8750000029802323 -15
v 1.045 1.2249999970197678 -15
v 1.045 1.2249999970197678 0
v 1.045 0.8750000029802323 -15
v 1.045 0.8750000029802323 0
v 1.045 1.2249999970197678 -15
v 1.295 1.2249999970197678 -15
v 1.045 1.2249999970197678 0
v 1.295 1.2249999970197678 0
v 1.045 0.8750000029802323 0
v 1.295 0.8750000029802323 0
v 1.045 0.8750000029802323 -15
v 1.295 0.8750000029802323 -15
v 1.045 1.2249999970197678 0
v 1.295 1.2249999970197678 0
v 1.045 0.8750000029802323 0
v 1.295 0.8750000029802323 0
v 1.295 1.2249999970197678 -15
v 1.045 1.2249999970197678 -15
v 1.295 0.8750000029802323 -15
v 1.045 0.8750000029802323 -15
vt 0 1
vt 1 1
vt 0 0
vt 1 0
vt 0 1
vt 1 1
vt 0 0
vt 1 0
vt 0 1
vt 1 1
vt 0 0
vt 1 0
vt 0 1
vt 1 1
vt 0 0
vt 1 0
vt 0 1
vt 1 1
vt 0 0
vt 1 0
vt 0 1
vt 1 1
vt 0 0
vt 1 0
vn 1 0 0
vn 1 0 0
vn 1 0 0
vn 1 0 0
vn -1 0 0
vn -1 0 0
vn -1 0 0
vn -1 0 0
vn 0 1 0
vn 0 1 0
vn 0 1 0
vn 0 1 0
vn 0 -1 0
vn 0 -1 0
vn 0 -1 0
vn 0 -1 0
vn 0 0 1
vn 0 0 1
vn 0 0 1
vn 0 0 1
vn 0 0 -1
vn 0 0 -1
vn 0 0 -1
vn 0 0 -1
f 49/49/49 51/51/51 50/50/50
f 51/51/51 52/52/52 50/50/50
f 53/53/53 55/55/55 54/54/54
f 55/55/55 56/56/56 54/54/54
f 57/57/57 59/59/59 58/58/58
f 59/59/59 60/60/60 58/58/58
f 61/61/61 63/63/63 62/62/62
f 63/63/63 64/64/64 62/62/62
f 65/65/65 67/67/67 66/66/66
f 67/67/67 68/68/68 66/66/66
f 69/69/69 71/71/71 70/70/70
f 71/71/71 72/72/72 70/70/70
o 
v -0.9750000000000001 0.850000011920929 -13.875
v -0.9750000000000001 0.850000011920929 -14.125
v -0.9750000000000001 -1.1920928910669204e-8 -13.875
v -0.9750000000000001 -1.1920928910669204e-8 -14.125
v -1.225 0.850000011920929 -14.125
v -1.225 0.850000011920929 -13.875
v -1.225 -1.1920928910669204e-8 -14.125
v -1.225 -1.1920928910669204e-8 -13.875
v -1.225 0.850000011920929 -14.125
v -0.9750000000000001 0.850000011920929 -14.125
v -1.225 0.850000011920929 -13.875
v -0.9750000000000001 0.850000011920929 -13.875
v -1.225 -1.1920928910669204e-8 -13.875
v -0.9750000000000001 -1.1920928910669204e-8 -13.875
v -1.225 -1.1920928910669204e-8 -14.125
v -0.9750000000000001 -1.1920928910669204e-8 -14.125
v -1.225 0.850000011920929 -13.875
v -0.9750000000000001 0.850000011920929 -13.875
v -1.225 -1.1920928910669204e-8 -13.875
v -0.9750000000000001 -1.1920928910669204e-8 -13.875
v -0.9750000000000001 0.850000011920929 -14.125
v -1.225 0.850000011920929 -14.125
v -0.9750000000000001 -1.1920928910669204e-8 -14.125
v -1.225 -1.1920928910669204e-8 -14.125
vt 0 1
vt 1 1
vt 0 0
vt 1 0
vt 0 1
vt 1 1
vt 0 0
vt 1 0
vt 0 1
vt 1 1
vt 0 0
vt 1 0
vt 0 1
vt 1 1
vt 0 0
vt 1 0
vt 0 1
vt 1 1
vt 0 0
vt 1 0
vt 0 1
vt 1 1
vt 0 0
vt 1 0
vn 1 0 0
vn 1 0 0
vn 1 0 0
vn 1 0 0
vn -1 0 0
vn -1 0 0
vn -1 0 0
vn -1 0 0
vn 0 1 0
vn 0 1 0
vn 0 1 0
vn 0 1 0
vn 0 -1 0
vn 0 -1 0
vn 0 -1 0
vn 0 -1 0
vn 0 0 1
vn 0 0 1
vn 0 0 1
vn 0 0 1
vn 0 0 -1
vn 0 0 -1
vn 0 0 -1
vn 0 0 -1
f 73/73/73 75/75/75 74/74/74
f 75/75/75 76/76/76 74/74/74
f 77/77/77 79/79/79 78/78/78
f 79/79/79 80/80/80 78/78/78
f 81/81/81 83/83/83 82/82/82
f 83/83/83 84/84/84 82/82/82
f 85/85/85 87/87/87 86/86/86
f 87/87/87 88/88/88 86/86/86
f 89/89/89 91/91/91 90/90/90
f 91/91/91 92/92/92 90/90/90
f 93/93/93 95/95/95 94/94/94
f 95/95/95 96/96/96 94/94/94
o 
v 1.225 0.850000011920929 -13.875
v 1.225 0.850000011920929 -14.125
v 1.225 -1.1920928910669204e-8 -13.875
v 1.225 -1.1920928910669204e-8 -14.125
v 0.9750000000000001 0.850000011920929 -14.125
v 0.9750000000000001 0.850000011920929 -13.875
v 0.9750000000000001 -1.1920928910669204e-8 -14.125
v 0.9750000000000001 -1.1920928910669204e-8 -13.875
v 0.9750000000000001 0.850000011920929 -14.125
v 1.225 0.850000011920929 -14.125
v 0.9750000000000001 0.850000011920929 -13.875
v 1.225 0.850000011920929 -13.875
v 0.9750000000000001 -1.1920928910669204e-8 -13.875
v 1.225 -1.1920928910669204e-8 -13.875
v 0.9750000000000001 -1.1920928910669204e-8 -14.125
v 1.225 -1.1920928910669204e-8 -14.125
v 0.9750000000000001 0.850000011920929 -13.875
v 1.225 0.850000011920929 -13.875
v 0.9750000000000001 -1.1920928910669204e-8 -13.875
v 1.225 -1.1920928910669204e-8 -13.875
v 1.225 0.850000011920929 -14.125
v 0.9750000000000001 0.850000011920929 -14.125
v 1.225 -1.1920928910669204e-8 -14.125
v 0.9750000000000001 -1.1920928910669204e-8 -14.125
vt 0 1
vt 1 1
vt 0 0
vt 1 0
vt 0 1
vt 1 1
vt 0 0
vt 1 0
vt 0 1
vt 1 1
vt 0 0
vt 1 0
vt 0 1
vt 1 1
vt 0 0
vt 1 0
vt 0 1
vt 1 1
vt 0 0
vt 1 0
vt 0 1
vt 1 1
vt 0 0
vt 1 0
vn 1 0 0
vn 1 0 0
vn 1 0 0
vn 1 0 0
vn -1 0 0
vn -1 0 0
vn -1 0 0
vn -1 0 0
vn 0 1 0
vn 0 1 0
vn 0 1 0
vn 0 1 0
vn 0 -1 0
vn 0 -1 0
vn 0 -1 0
vn 0 -1 0
vn 0 0 1
vn 0 0 1
vn 0 0 1
vn 0 0 1
vn 0 0 -1
vn 0 0 -1
vn 0 0 -1
vn 0 0 -1
f 97/97/97 99/99/99 98/98/98
f 99/99/99 100/100/100 98/98/98
f 101/101/101 103/103/103 102/102/102
f 103/103/103 104/104/104 102/102/102
f 105/105/105 107/107/107 106/106/106
f 107/107/107 108/108/108 106/106/106
f 109/109/109 111/111/111 110/110/110
f 111/111/111 112/112/112 110/110/110
f 113/113/113 115/115/115 114/114/114
f 115/115/115 116/116/116 114/114/114
f 117/117/117 119/119/119 118/118/118
f 119/119/119 120/120/120 118/118/118
o 
v -0.9750000000000001 0.850000011920929 -10.875
v -0.9750000000000001 0.850000011920929 -11.125
v -0.9750000000000001 -1.1920928910669204e-8 -10.875
v -0.9750000000000001 -1.1920928910669204e-8 -11.125
v -1.225 0.850000011920929 -11.125
v -1.225 0.850000011920929 -10.875
v -1.225 -1.1920928910669204e-8 -11.125
v -1.225 -1.1920928910669204e-8 -10.875
v -1.225 0.850000011920929 -11.125
v -0.9750000000000001 0.850000011920929 -11.125
v -1.225 0.850000011920929 -10.875
v -0.9750000000000001 0.850000011920929 -10.875
v -1.225 -1.1920928910669204e-8 -10.875
v -0.9750000000000001 -1.1920928910669204e-8 -10.875
v -1.225 -1.1920928910669204e-8 -11.125
v -0.9750000000000001 -1.1920928910669204e-8 -11.125
v -1.225 0.850000011920929 -10.875
v -0.9750000000000001 0.850000011920929 -10.875
v -1.225 -1.1920928910669204e-8 -10.875
v -0.9750000000000001 -1.1920928910669204e-8 -10.875
v -0.9750000000000001 0.850000011920929 -11.125
v -1.225 0.850000011920929 -11.125
v -0.9750000000000001 -1.1920928910669204e-8 -11.125
v -1.225 -1.1920928910669204e-8 -11.125
vt 0 1
vt 1 1
vt 0 0
vt 1 0
vt 0 1
vt 1 1
vt 0 0
vt 1 0
vt 0 1
vt 1 1
vt 0 0
vt 1 0
vt 0 1
vt 1 1
vt 0 0
vt 1 0
vt 0 1
vt 1 1
vt 0 0
vt 1 0
vt 0 1
vt 1 1
vt 0 0
vt 1 0
vn 1 0 0
vn 1 0 0
vn 1 0 0
vn 1 0 0
vn -1 0 0
vn -1 0 0
vn -1 0 0
vn -1 0 0
vn 0 1 0
vn 0 1 0
vn 0 1 0
vn 0 1 0
vn 0 -1 0
vn 0 -1 0
vn 0 -1 0
vn 0 -1 0
vn 0 0 1
vn 0 0 1
vn 0 0 1
vn 0 0 1
vn 0 0 -1
vn 0 0 -1
vn 0 0 -1
vn 0 0 -1
f 121/121/121 123/123/123 122/122/122
f 123/123/123 124/124/124 122/122/122
f 125/125/125 127/127/127 126/126/126
f 127/127/127 128/128/128 126/126/126
f 129/129/129 131/131/131 130/130/130
f 131/131/131 132/132/132 130/130/130
f 133/133/133 135/135/135 134/134/134
f 135/135/135 136/136/136 134/134/134
f 137/137/137 139/139/139 138/138/138
f 139/139/139 140/140/140 138/138/138
f 141/141/141 143/143/143 142/142/142
f 143/143/143 144/144/144 142/142/142
o 
v 1.225 0.850000011920929 -10.875
v 1.225 0.850000011920929 -11.125
v 1.225 -1.1920928910669204e-8 -10.875
v 1.225 -1.1920928910669204e-8 -11.125
v 0.9750000000000001 0.850000011920929 -11.125
v 0.9750000000000001 0.850000011920929 -10.875
v 0.9750000000000001 -1.1920928910669204e-8 -11.125
v 0.9750000000000001 -1.1920928910669204e-8 -10.875
v 0.9750000000000001 0.850000011920929 -11.125
v 1.225 0.850000011920929 -11.125
v 0.9750000000000001 0.850000011920929 -10.875
v 1.225 0.850000011920929 -10.875
v 0.9750000000000001 -1.1920928910669204e-8 -10.875
v 1.225 -1.1920928910669204e-8 -10.875
v 0.9750000000000001 -1.1920928910669204e-8 -11.125
v 1.225 -1.1920928910669204e-8 -11.125
v 0.9750000000000001 0.850000011920929 -10.875
v 1.225 0.850000011920929 -10.875
v 0.9750000000000001 -1.1920928910669204e-8 -10.875
v 1.225 -1.1920928910669204e-8 -10.875
v 1.225 0.850000011920929 -11.125
v 0.9750000000000001 0.850000011920929 -11.125
v 1.225 -1.1920928910669204e-8 -11.125
v 0.9750000000000001 -1.1920928910669204e-8 -11.125
vt 0 1
vt 1 1
vt 0 0
vt 1 0
vt 0 1
vt 1 1
vt 0 0
vt 1 0
vt 0 1
vt 1 1
vt 0 0
vt 1 0
vt 0 1
vt 1 1
vt 0 0
vt 1 0
vt 0 1
vt 1 1
vt 0 0
vt 1 0
vt 0 1
vt 1 1
vt 0 0
vt 1 0
vn 1 0 0
vn 1 0 0
vn 1 0 0
vn 1 0 0
vn -1 0 0
vn -1 0 0
vn -1 0 0
vn -1 0 0
vn 0 1 0
vn 0 1 0
vn 0 1 0
vn 0 1 0
vn 0 -1 0
vn 0 -1 0
vn 0 -1 0
vn 0 -1 0
vn 0 0 1
vn 0 0 1
vn 0 0 1
vn 0 0 1
vn 0 0 -1
vn 0 0 -1
vn 0 0 -1
vn 0 0 -1
f 145/145/145 147/147/147 146/146/146
f 147/147/147 148/148/148 146/146/146
f 149/149/149 151/151/151 150/150/150
f 151/151/151 152/152/152 150/150/150
f 153/153/153 155/155/155 154/154/154
f 155/155/155 156/156/156 154/154/154
f 157/157/157 159/159/159 158/158/158
f 159/159/159 160/160/160 158/158/158
f 161/161/161 163/163/163 162/162/162
f 163/163/163 164/164/164 162/162/162
f 165/165/165 167/167/167 166/166/166
f 167/167/167 168/168/168 166/166/166
o 
v -0.9750000000000001 0.850000011920929 -7.875
v -0.9750000000000001 0.850000011920929 -8.125
v -0.9750000000000001 -1.1920928910669204e-8 -7.875
v -0.9750000000000001 -1.1920928910669204e-8 -8.125
v -1.225 0.850000011920929 -8.125
v -1.225 0.850000011920929 -7.875
v -1.225 -1.1920928910669204e-8 -8.125
v -1.225 -1.1920928910669204e-8 -7.875
v -1.225 0.850000011920929 -8.125
v -0.9750000000000001 0.850000011920929 -8.125
v -1.225 0.850000011920929 -7.875
v -0.9750000000000001 0.850000011920929 -7.875
v -1.225 -1.1920928910669204e-8 -7.875
v -0.9750000000000001 -1.1920928910669204e-8 -7.875
v -1.225 -1.1920928910669204e-8 -8.125
v -0.9750000000000001 -1.1920928910669204e-8 -8.125
v -1.225 0.850000011920929 -7.875
v -0.9750000000000001 0.850000011920929 -7.875
v -1.225 -1.1920928910669204e-8 -7.875
v -0.9750000000000001 -1.1920928910669204e-8 -7.875
v -0.9750000000000001 0.850000011920929 -8.125
v -1.225 0.850000011920929 -8.125
v -0.9750000000000001 -1.1920928910669204e-8 -8.125
v -1.225 -1.1920928910669204e-8 -8.125
vt 0 1
vt 1 1
vt 0 0
vt 1 0
vt 0 1
vt 1 1
vt 0 0
vt 1 0
vt 0 1
vt 1 1
vt 0 0
vt 1 0
vt 0 1
vt 1 1
vt 0 0
vt 1 0
vt 0 1
vt 1 1
vt 0 0
vt 1 0
vt 0 1
vt 1 1
vt 0 0
vt 1 0
vn 1 0 0
vn 1 0 0
vn 1 0 0
vn 1 0 0
vn -1 0 0
vn -1 0 0
vn -1 0 0
vn -1 0 0
vn 0 1 0
vn 0 1 0
vn 0 1 0
vn 0 1 0
vn 0 -1 0
vn 0 -1 0
vn 0 -1 0
vn 0 -1 0
vn 0 0 1
vn 0 0 1
vn 0 0 1
vn 0 0 1
vn 0 0 -1
vn 0 0 -1
vn 0 0 -1
vn 0 0 -1
f 169/169/169 171/171/171 170/170/170
f 171/171/171 172/172/172 170/170/170
f 173/173/173 175/175/175 174/174/174
f 175/175/175 176/176/176 174/174/174
f 177/177/177 179/179/179 178/178/178
f 179/179/179 180/180/180 178/178/178
f 181/181/181 183/183/183 182/182/182
f 183/183/183 184/184/184 182/182/182
f 185/185/185 187/187/187 186/186/186
f 187/187/187 188/188/188 186/186/186
f 189/189/189 191/191/191 190/190/190
f 191/191/191 192/192/192 190/190/190
o 
v 1.225 0.850000011920929 -7.875
v 1.225 0.850000011920929 -8.125
v 1.225 -1.1920928910669204e-8 -7.875
v 1.225 -1.1920928910669204e-8 -8.125
v 0.9750000000000001 0.850000011920929 -8.125
v 0.9750000000000001 0.850000011920929 -7.875
v 0.9750000000000001 -1.1920928910669204e-8 -8.125
v 0.9750000000000001 -1.1920928910669204e-8 -7.875
v 0.9750000000000001 0.850000011920929 -8.125
v 1.225 0.850000011920929 -8.125
v 0.9750000000000001 0.850000011920929 -7.875
v 1.225 0.850000011920929 -7.875
v 0.9750000000000001 -1.1920928910669204e-8 -7.875
v 1.225 -1.1920928910669204e-8 -7.875
v 0.9750000000000001 -1.1920928910669204e-8 -8.125
v 1.225 -1.1920928910669204e-8 -8.125
v 0.9750000000000001 0.850000011920929 -7.875
v 1.225 0.850000011920929 -7.875
v 0.9750000000000001 -1.1920928910669204e-8 -7.875
v 1.225 -1.1920928910669204e-8 -7.875
v 1.225 0.850000011920929 -8.125
v 0.9750000000000001 0.850000011920929 -8.125
v 1.225 -1.1920928910669204e-8 -8.125
v 0.9750000000000001 -1.1920928910669204e-8 -8.125
vt 0 1
vt 1 1
vt 0 0
vt 1 0
vt 0 1
vt 1 1
vt 0 0
vt 1 0
vt 0 1
vt 1 1
vt 0 0
vt 1 0
vt 0 1
vt 1 1
vt 0 0
vt 1 0
vt 0 1
vt 1 1
vt 0 0
vt 1 0
vt 0 1
vt 1 1
vt 0 0
vt 1 0
vn 1 0 0
vn 1 0 0
vn 1 0 0
vn 1 0 0
vn -1 0 0
vn -1 0 0
vn -1 0 0
vn -1 0 0
vn 0 1 0
vn 0 1 0
vn 0 1 0
vn 0 1 0
vn 0 -1 0
vn 0 -1 0
vn 0 -1 0
vn 0 -1 0
vn 0 0 1
vn 0 0 1
vn 0 0 1
vn 0 0 1
vn 0 0 -1
vn 0 0 -1
vn 0 0 -1
vn 0 0 -1
f 193/193/193 195/195/195 194/194/194
f 195/195/195 196/196/196 194/194/194
f 197/197/197 199/199/199 198/198/198
f 199/199/199 200/200/200 198/198/198
f 201/201/201 203/203/203 202/202/202
f 203/203/203 204/204/204 202/202/202
f 205/205/205 207/207/207 206/206/206
f 207/207/207 208/208/208 206/206/206
f 209/209/209 211/211/211 210/210/210
f 211/211/211 212/212/212 210/210/210
f 213/213/213 215/215/215 214/214/214
f 215/215/215 216/216/216 214/214/214
o 
v -0.9750000000000001 0.850000011920929 -4.875
v -0.9750000000000001 0.850000011920929 -5.125
v -0.9750000000000001 -1.1920928910669204e-8 -4.875
v -0.9750000000000001 -1.1920928910669204e-8 -5.125
v -1.225 0.850000011920929 -5.125
v -1.225 0.850000011920929 -4.875
v -1.225 -1.1920928910669204e-8 -5.125
v -1.225 -1.1920928910669204e-8 -4.875
v -1.225 0.850000011920929 -5.125
v -0.9750000000000001 0.850000011920929 -5.125
v -1.225 0.850000011920929 -4.875
v -0.9750000000000001 0.850000011920929 -4.875
v -1.225 -1.1920928910669204e-8 -4.875
v -0.9750000000000001 -1.1920928910669204e-8 -4.875
v -1.225 -1.1920928910669204e-8 -5.125
v -0.9750000000000001 -1.1920928910669204e-8 -5.125
v -1.225 0.850000011920929 -4.875
v -0.9750000000000001 0.850000011920929 -4.875
v -1.225 -1.1920928910669204e-8 -4.875
v -0.9750000000000001 -1.1920928910669204e-8 -4.875
v -0.9750000000000001 0.850000011920929 -5.125
v -1.225 0.850000011920929 -5.125
v -0.9750000000000001 -1.1920928910669204e-8 -5.125
v -1.225 -1.1920928910669204e-8 -5.125
vt 0 1
vt 1 1
vt 0 0
vt 1 0
vt 0 1
vt 1 1
vt 0 0
vt 1 0
vt 0 1
vt 1 1
vt 0 0
vt 1 0
vt 0 1
vt 1 1
vt 0 0
vt 1 0
vt 0 1
vt 1 1
vt 0 0
vt 1 0
vt 0 1
vt 1 1
vt 0 0
vt 1 0
vn 1 0 0
vn 1 0 0
vn 1 0 0
vn 1 0 0
vn -1 0 0
vn -1 0 0
vn -1 0 0
vn -1 0 0
vn 0 1 0
vn 0 1 0
vn 0 1 0
vn 0 1 0
vn 0 -1 0
vn 0 -1 0
vn 0 -1 0
vn 0 -1 0
vn 0 0 1
vn 0 0 1
vn 0 0 1
vn 0 0 1
vn 0 0 -1
vn 0 0 -1
vn 0 0 -1
vn 0 0 -1
f 217/217/217 219/219/219 218/218/218
f 219/219/219 220/220/220 218/218/218
f 221/221/221 223/223/223 222/222/222
f 223/223/223 224/224/224 222/222/222
f 225/225/225 227/227/227 226/226/226
f 227/227/227 228/228/228 226/226/226
f 229/229/229 231/231/231 230/230/230
f 231/231/231 232/232/232 230/230/230
f 233/233/233 235/235/235 234/234/234
f 235/235/235 236/236/236 234/234/234
f 237/237/237 239/239/239 238/238/238
f 239/239/239 240/240/240 238/238/238
o 
v 1.225 0.850000011920929 -4.875
v 1.225 0.850000011920929 -5.125
v 1.225 -1.1920928910669204e-8 -4.875
v 1.225 -1.1920928910669204e-8 -5.125
v 0.9750000000000001 0.850000011920929 -5.125
v 0.9750000000000001 0.850000011920929 -4.875
v 0.9750000000000001 -1.1920928910669204e-8 -5.125
v 0.9750000000000001 -1.1920928910669204e-8 -4.875
v 0.9750000000000001 0.850000011920929 -5.125
v 1.225 0.850000011920929 -5.125
v 0.9750000000000001 0.850000011920929 -4.875
v 1.225 0.850000011920929 -4.875
v 0.9750000000000001 -1.1920928910669204e-8 -4.875
v 1.225 -1.1920928910669204e-8 -4.875
v 0.9750000000000001 -1.1920928910669204e-8 -5.125
v 1.225 -1.1920928910669204e-8 -5.125
v 0.9750000000000001 0.850000011920929 -4.875
v 1.225 0.850000011920929 -4.875
v 0.9750000000000001 -1.1920928910669204e-8 -4.875
v 1.225 -1.1920928910669204e-8 -4.875
v 1.225 0.850000011920929 -5.125
v 0.9750000000000001 0.850000011920929 -5.125
v 1.225 -1.1920928910669204e-8 -5.125
v 0.9750000000000001 -1.1920928910669204e-8 -5.125
vt 0 1
vt 1 1
vt 0 0
vt 1 0
vt 0 1
vt 1 1
vt 0 0
vt 1 0
vt 0 1
vt 1 1
vt 0 0
vt 1 0
vt 0 1
vt 1 1
vt 0 0
vt 1 0
vt 0 1
vt 1 1
vt 0 0
vt 1 0
vt 0 1
vt 1 1
vt 0 0
vt 1 0
vn 1 0 0
vn 1 0 0
vn 1 0 0
vn 1 0 0
vn -1 0 0
vn -1 0 0
vn -1 0 0
vn -1 0 0
vn 0 1 0
vn 0 1 0
vn 0 1 0
vn 0 1 0
vn 0 -1 0
vn 0 -1 0
vn 0 -1 0
vn 0 -1 0
vn 0 0 1
vn 0 0 1
vn 0 0 1
vn 0 0 1
vn 0 0 -1
vn 0 0 -1
vn 0 0 -1
vn 0 0 -1
f 241/241/241 243/243/243 242/242/242
f 243/243/243 244/244/244 242/242/242
f 245/245/245 247/247/247 246/246/246
f 247/247/247 248/248/248 246/246/246
f 249/249/249 251/251/251 250/250/250
f 251/251/251 252/252/252 250/250/250
f 253/253/253 255/255/255 254/254/254
f 255/255/255 256/256/256 254/254/254
f 257/257/257 259/259/259 258/258/258
f 259/259/259 260/260/260 258/258/258
f 261/261/261 263/263/263 262/262/262
f 263/263/263 264/264/264 262/262/262
o 
v -0.9750000000000001 0.850000011920929 -1.875
v -0.9750000000000001 0.850000011920929 -2.125
v -0.9750000000000001 -1.1920928910669204e-8 -1.875
v -0.9750000000000001 -1.1920928910669204e-8 -2.125
v -1.225 0.850000011920929 -2.125
v -1.225 0.850000011920929 -1.875
v -1.225 -1.1920928910669204e-8 -2.125
v -1.225 -1.1920928910669204e-8 -1.875
v -1.225 0.850000011920929 -2.125
v -0.9750000000000001 0.850000011920929 -2.125
v -1.225 0.850000011920929 -1.875
v -0.9750000000000001 0.850000011920929 -1.875
v -1.225 -1.1920928910669204e-8 -1.875
v -0.9750000000000001 -1.1920928910669204e-8 -1.875
v -1.225 -1.1920928910669204e-8 -2.125
v -0.9750000000000001 -1.1920928910669204e-8 -2.125
v -1.225 0.850000011920929 -1.875
v -0.9750000000000001 0.850000011920929 -1.875
v -1.225 -1.1920928910669204e-8 -1.875
v -0.9750000000000001 -1.1920928910669204e-8 -1.875
v -0.9750000000000001 0.850000011920929 -2.125
v -1.225 0.850000011920929 -2.125
v -0.9750000000000001 -1.1920928910669204e-8 -2.125
v -1.225 -1.1920928910669204e-8 -2.125
vt 0 1
vt 1 1
vt 0 0
vt 1 0
vt 0 1
vt 1 1
vt 0 0
vt 1 0
vt 0 1
vt 1 1
vt 0 0
vt 1 0
vt 0 1
vt 1 1
vt 0 0
vt 1 0
vt 0 1
vt 1 1
vt 0 0
vt 1 0
vt 0 1
vt 1 1
vt 0 0
vt 1 0
vn 1 0 0
vn 1 0 0
vn 1 0 0
vn 1 0 0
vn -1 0 0
vn -1 0 0
vn -1 0 0
vn -1 0 0
vn 0 1 0
vn 0 1 0
vn 0 1 0
vn 0 1 0
vn 0 -1 0
vn 0 -1 0
vn 0 -1 0
vn 0 -1 0
vn 0 0 1
vn 0 0 1
vn 0 0 1
vn 0 0 1
vn 0 0 -1
vn 0 0 -1
vn 0 0 -1
vn 0 0 -1
f 265/265/265 267/267/267 266/266/266
f 267/267/267 268/268/268 266/266/266
f 269/269/269 271/271/271 270/270/270
f 271/271/271 272/272/272 270/270/270
f 273/273/273 275/275/275 274/274/274
f 275/275/275 276/276/276 274/274/274
f 277/277/277 279/279/279 278/278/278
f 279/279/279 280/280/280 278/278/278
f 281/281/281 283/283/283 282/282/282
f 283/283/283 284/284/284 282/282/282
f 285/285/285 287/287/287 286/286/286
f 287/287/287 288/288/288 286/286/286
o 
v 1.225 0.850000011920929 -1.875
v 1.225 0.850000011920929 -2.125
v 1.225 -1.1920928910669204e-8 -1.875
v 1.225 -1.1920928910669204e-8 -2.125
v 0.9750000000000001 0.850000011920929 -2.125
v 0.9750000000000001 0.850000011920929 -1.875
v 0.9750000000000001 -1.1920928910669204e-8 -2.125
v 0.9750000000000001 -1.1920928910669204e-8 -1.875
v 0.9750000000000001 0.850000011920929 -2.125
v 1.225 0.850000011920929 -2.125
v 0.9750000000000001 0.850000011920929 -1.875
v 1.225 0.850000011920929 -1.875
v 0.9750000000000001 -1.1920928910669204e-8 -1.875
v 1.225 -1.1920928910669204e-8 -1.875
v 0.9750000000000001 -1.1920928910669204e-8 -2.125
v 1.225 -1.1920928910669204e-8 -2.125
v 0.9750000000000001 0.850000011920929 -1.875
v 1.225 0.850000011920929 -1.875
v 0.9750000000000001 -1.1920928910669204e-8 -1.875
v 1.225 -1.1920928910669204e-8 -1.875
v 1.225 0.850000011920929 -2.125
v 0.9750000000000001 0.850000011920929 -2.125
v 1.225 -1.1920928910669204e-8 -2.125
v 0.9750000000000001 -1.1920928910669204e-8 -2.125
vt 0 1
vt 1 1
vt 0 0
vt 1 0
vt 0 1
vt 1 1
vt 0 0
vt 1 0
vt 0 1
vt 1 1
vt 0 0
vt 1 0
vt 0 1
vt 1 1
vt 0 0
vt 1 0
vt 0 1
vt 1 1
vt 0 0
vt 1 0
vt 0 1
vt 1 1
vt 0 0
vt 1 0
vn 1 0 0
vn 1 0 0
vn 1 0 0
vn 1 0 0
vn -1 0 0
vn -1 0 0
vn -1 0 0
vn -1 0 0
vn 0 1 0
vn 0 1 0
vn 0 1 0
vn 0 1 0
vn 0 -1 0
vn 0 -1 0
vn 0 -1 0
vn 0 -1 0
vn 0 0 1
vn 0 0 1
vn 0 0 1
vn 0 0 1
vn 0 0 -1
vn 0 0 -1
vn 0 0 -1
vn 0 0 -1
f 289/289/289 291/291/291 290/290/290
f 291/291/291 292/292/292 290/290/290
f 293/293/293 295/295/295 294/294/294
f 295/295/295 296/296/296 294/294/294
f 297/297/297 299/299/299 298/298/298
f 299/299/299 300/300/300 298/298/298
f 301/301/301 303/303/303 302/302/302
f 303/303/303 304/304/304 302/302/302
f 305/305/305 307/307/307 306/306/306
f 307/307/307 308/308/308 306/306/306
f 309/309/309 311/311/311 310/310/310
f 311/311/311 312/312/312 310/310/310
o 
v 0 5.400000011920929 -13.400000047683715
v 0.49748846888542175 5.400000011920929 -13.498956632614135
v 0.919238805770874 5.400000011920929 -13.780761194229125
v 1.2010433673858643 5.400000011920929 -14.202511531114578
v 1.2999999523162842 5.400000011920929 -14.7
v 1.2010433673858643 5.400000011920929 -15.197488468885421
v 0.919238805770874 5.400000011920929 -15.619238805770873
v 0.49748846888542175 5.400000011920929 -15.901043367385864
v 1.5920407760118202e-16 5.400000011920929 -15.999999952316283
v -0.49748846888542175 5.400000011920929 -15.901043367385864
v -0.919238805770874 5.400000011920929 -15.619238805770873
v -1.2010433673858643 5.400000011920929 -15.197488468885421
v -1.2999999523162842 5.400000011920929 -14.7
v -1.2010433673858643 5.400000011920929 -14.202511531114578
v -0.919238805770874 5.400000011920929 -13.780761194229125
v -0.49748846888542175 5.400000011920929 -13.498956632614135
v -3.1840815520236404e-16 5.400000011920929 -13.400000047683715
v 0 3.7999999880790707 -13.89999998807907
v 0.3061467409133911 3.7999999880790707 -13.960896384716033
v 0.5656854510307312 3.7999999880790707 -14.134314548969268
v 0.7391036152839661 3.7999999880790707 -14.393853259086608
v 0.800000011920929 3.7999999880790707 -14.7
v 0.7391036152839661 3.7999999880790707 -15.00614674091339
v 0.5656854510307312 3.7999999880790707 -15.26568545103073
v 0.3061467409133911 3.7999999880790707 -15.439103615283965
v 9.797174158936853e-17 3.7999999880790707 -15.500000011920928
v -0.3061467409133911 3.7999999880790707 -15.439103615283965
v -0.5656854510307312 3.7999999880790707 -15.26568545103073
v -0.7391036152839661 3.7999999880790707 -15.00614674091339
v -0.800000011920929 3.7999999880790707 -14.7
v -0.7391036152839661 3.7999999880790707 -14.393853259086608
v -0.5656854510307312 3.7999999880790707 -14.134314548969268
v -0.3061467409133911 3.7999999880790707 -13.960896384716033
v -1.9594348317873706e-16 3.7999999880790707 -13.89999998807907
vt 0 1
vt 0.0625 1
vt 0.125 1
vt 0.1875 1
vt 0.25 1
vt 0.3125 1
vt 0.375 1
vt 0.4375 1
vt 0.5 1
vt 0.5625 1
vt 0.625 1
vt 0.6875 1
vt 0.75 1
vt 0.8125 1
vt 0.875 1
vt 0.9375 1
vt 1 1
vt 0 0
vt 0.0625 0
vt 0.125 0
vt 0.1875 0
vt 0.25 0
vt 0.3125 0
vt 0.375 0
vt 0.4375 0
vt 0.5 0
vt 0.5625 0
vt 0.625 0
vt 0.6875 0
vt 0.75 0
vt 0.8125 0
vt 0.875 0
vt 0.9375 0
vt 1 0
vn 0 -0.29827498974208805 0.9544799790956106
vn 0.36526367830242934 -0.2982750001186004 0.8818245118033567
vn 0.6749192632788262 -0.2982750008135657 0.6749192632788262
vn 0.8818245118033567 -0.2982750001186004 0.36526367830242934
vn 0.9544799790956106 -0.29827498974208805 5.844504093594831e-17
vn 0.8818245118033567 -0.2982750001186004 -0.36526367830242934
vn 0.6749192632788262 -0.2982750008135657 -0.6749192632788262
vn 0.36526367830242934 -0.2982750001186004 -0.8818245118033567
vn 1.1689008187189662e-16 -0.29827498974208805 -0.9544799790956106
vn -0.36526367830242934 -0.2982750001186004 -0.8818245118033567
vn -0.6749192632788262 -0.2982750008135657 -0.6749192632788262
vn -0.8818245118033567 -0.2982750001186004 -0.36526367830242934
vn -0.9544799790956106 -0.29827498974208805 -1.7533512942528975e-16
vn -0.8818245118033567 -0.2982750001186004 0.36526367830242934
vn -0.6749192632788262 -0.2982750008135657 0.6749192632788262
vn -0.36526367830242934 -0.2982750001186004 0.8818245118033567
vn -2.3378016374379324e-16 -0.29827498974208805 0.9544799790956106
vn 0 -0.29827498974208805 0.9544799790956106
vn 0.36526367830242934 -0.2982750001186004 0.8818245118033567
vn 0.6749192632788262 -0.2982750008135657 0.6749192632788262
vn 0.8818245118033567 -0.2982750001186004 0.36526367830242934
vn 0.9544799790956106 -0.29827498974208805 5.844504093594831e-17
vn 0.8818245118033567 -0.2982750001186004 -0.36526367830242934
vn 0.6749192632788262 -0.2982750008135657 -0.6749192632788262
vn 0.36526367830242934 -0.2982750001186004 -0.8818245118033567
vn 1.1689008187189662e-16 -0.29827498974208805 -0.9544799790956106
vn -0.36526367830242934 -0.2982750001186004 -0.8818245118033567
vn -0.6749192632788262 -0.2982750008135657 -0.6749192632788262
vn -0.8818245118033567 -0.2982750001186004 -0.36526367830242934
vn -0.9544799790956106 -0.29827498974208805 -1.7533512942528975e-16
vn -0.8818245118033567 -0.2982750001186004 0.36526367830242934
vn -0.6749192632788262 -0.2982750008135657 0.6749192632788262
vn -0.36526367830242934 -0.2982750001186004 0.8818245118033567
vn -2.3378016374379324e-16 -0.29827498974208805 0.9544799790956106
f 313/313/313 330/330/330 314/314/314
f 330/330/330 331/331/331 314/314/314
f 314/314/314 331/331/331 315/315/315
f 331/331/331 332/332/332 315/315/315
f 315/315/315 332/332/332 316/316/316
f 332/332/332 333/333/333 316/316/316
f 316/316/316 333/333/333 317/317/317
f 333/333/333 334/334/334 317/317/317
f 317/317/317 334/334/334 318/318/318
f 334/334/334 335/335/335 318/318/318
f 318/318/318 335/335/335 319/319/319
f 335/335/335 336/336/336 319/319/319
f 319/319/319 336/336/336 320/320/320
f 336/336/336 337/337/337 320/320/320
f 320/320/320 337/337/337 321/321/321
f 337/337/337 338/338/338 321/321/321
f 321/321/321 338/338/338 322/322/322
f 338/338/338 339/339/339 322/322/322
f 322/322/322 339/339/339 323/323/323
f 339/339/339 340/340/340 323/323/323
f 323/323/323 340/340/340 324/324/324
f 340/340/340 341/341/341 324/324/324
f 324/324/324 341/341/341 325/325/325
f 341/341/341 342/342/342 325/325/325
f 325/325/325 342/342/342 326/326/326
f 342/342/342 343/343/343 326/326/326
f 326/326/326 343/343/343 327/327/327
f 343/343/343 344/344/344 327/327/327
f 327/327/327 344/344/344 328/328/328
f 344/344/344 345/345/345 328/328/328
f 328/328/328 345/345/345 329/329/329
f 345/345/345 346/346/346 329/329/329
o 
v -1.0999999985098838 4 -15.499999998509884
v -1.0999999985098838 4 -15.700000001490116
v -1.0999999985098838 0 -15.499999998509884
v -1.0999999985098838 0 -15.700000001490116
v -1.300000001490116 4 -15.700000001490116
v -1.300000001490116 4 -15.499999998509884
v -1.300000001490116 0 -15.700000001490116
v -1.300000001490116 0 -15.499999998509884
v -1.300000001490116 4 -15.700000001490116
v -1.0999999985098838 4 -15.700000001490116
v -1.300000001490116 4 -15.499999998509884
v -1.0999999985098838 4 -15.499999998509884
v -1.300000001490116 0 -15.499999998509884
v -1.0999999985098838 0 -15.499999998509884
v -1.300000001490116 0 -15.700000001490116
v -1.0999999985098838 0 -15.700000001490116
v -1.300000001490116 4 -15.499999998509884
v -1.0999999985098838 4 -15.499999998509884
v -1.300000001490116 0 -15.499999998509884
v -1.0999999985098838 0 -15.499999998509884
v -1.0999999985098838 4 -15.700000001490116
v -1.300000001490116 4 -15.700000001490116
v -1.0999999985098838 0 -15.700000001490116
v -1.300000001490116 0 -15.700000001490116
vt 0 1
vt 1 1
vt 0 0
vt 1 0
vt 0 1
vt 1 1
vt 0 0
vt 1 0
vt 0 1
vt 1 1
vt 0 0
vt 1 0
vt 0 1
vt 1 1
vt 0 0
vt 1 0
vt 0 1
vt 1 1
vt 0 0
vt 1 0
vt 0 1
vt 1 1
vt 0 0
vt 1 0
vn 1 0 0
vn 1 0 0
vn 1 0 0
vn 1 0 0
vn -1 0 0
vn -1 0 0
vn -1 0 0
vn -1 0 0
vn 0 1 0
vn 0 1 0
vn 0 1 0
vn 0 1 0
vn 0 -1 0
vn 0 -1 0
vn 0 -1 0
vn 0 -1 0
vn 0 0 1
vn 0 0 1
vn 0 0 1
vn 0 0 1
vn 0 0 -1
vn 0 0 -1
vn 0 0 -1
vn 0 0 -1
f 347/347/347 349/349/349 348/348/348
f 349/349/349 350/350/350 348/348/348
f 351/351/351 353/353/353 352/352/352
f 353/353/353 354/354/354 352/352/352
f 355/355/355 357/357/357 356/356/356
f 357/357/357 358/358/358 356/356/356
f 359/359/359 361/361/361 360/360/360
f 361/361/361 362/362/362 360/360/360
f 363/363/363 365/365/365 364/364/364
f 365/365/365 366/366/366 364/364/364
f 367/367/367 369/369/369 368/368/368
f 369/369/369 370/370/370 368/368/368
o 
v 1.300000001490116 4 -15.499999998509884
v 1.300000001490116 4 -15.700000001490116
v 1.300000001490116 0 -15.499999998509884
v 1.300000001490116 0 -15.700000001490116
v 1.0999999985098838 4 -15.700000001490116
v 1.0999999985098838 4 -15.499999998509884
v 1.0999999985098838 0 -15.700000001490116
v 1.0999999985098838 0 -15.499999998509884
v 1.0999999985098838 4 -15.700000001490116
v 1.300000001490116 4 -15.700000001490116
v 1.0999999985098838 4 -15.499999998509884
v 1.300000001490116 4 -15.499999998509884
v 1.0999999985098838 0 -15.499999998509884
v 1.300000001490116 0 -15.499999998509884
v 1.0999999985098838 0 -15.700000001490116
v 1.300000001490116 0 -15.700000001490116
v 1.0999999985098838 4 -15.499999998509884
v 1.300000001490116 4 -15.499999998509884
v 1.0999999985098838 0 -15.499999998509884
v 1.300000001490116 0 -15.499999998509884
v 1.300000001490116 4 -15.700000001490116
v 1.0999999985098838 4 -15.700000001490116
v 1.300000001490116 0 -15.700000001490116
v 1.0999999985098838 0 -15.700000001490116
vt 0 1
vt 1 1
vt 0 0
vt 1 0
vt 0 1
vt 1 1
vt 0 0
vt 1 0
vt 0 1
vt 1 1
vt 0 0
vt 1 0
vt 0 1
vt 1 1
vt 0 0
vt 1 0
vt 0 1
vt 1 1
vt 0 0
vt 1 0
vt 0 1
vt 1 1
vt 0 0
vt 1 0
vn 1 0 0
vn 1 0 0
vn 1 0 0
vn 1 0 0
vn -1 0 0
vn -1 0 0
vn -1 0 0
vn -1 0 0
vn 0 1 0
vn 0 1 0
vn 0 1 0
vn 0 1 0
vn 0 -1 0
vn 0 -1 0
vn 0 -1 0
vn 0 -1 0
vn 0 0 1
vn 0 0 1
vn 0 0 1
vn 0 0 1
vn 0 0 -1
vn 0 0 -1
vn 0 0 -1
vn 0 0 -1
f 371/371/371 373/373/373 372/372/372
f 373/373/373 374/374/374 372/372/372
f 375/375/375 377/377/377 376/376/376
f 377/377/377 378/378/378 376/376/376
f 379/379/379 381/381/381 380/380/380
f 381/381/381 382/382/382 380/380/380
f 383/383/383 385/385/385 384/384/384
f 385/385/385 386/386/386 384/384/384
f 387/387/387 389/389/389 388/388/388
f 389/389/389 390/390/390 388/388/388
f 391/391/391 393/393/393 392/392/392
f 393/393/393 394/394/394 392/392/392
